<svg xmlns="http://www.w3.org/2000/svg" viewBox="0 0 26 26">
  <path fill="#ebebdc"
    d="M21.4,5.7,14.5,4.4a2,2,0,0,0-2.4,1.9c0,.2-.1.4-.1.7h.1v.7h-.2c-.1.7-.3,1.3-.4,2s.7.5.7.7v.3h-.1v.6c-.3,0-.5-.2-.5-.6h.5l-.6-.6c-.5,2.7-.9,5.3-1.4,7.9s.3,2.3,1.7,2.6l2.7.5v-.4c.4,0,.6.2.6.5l1.4.3V21H17a3.1,3.1,0,0,0,.1-1l.6.3.7-.5v-.5h.3V20h-.3l-1.2,1.7,1.3.3q2.3.5,2.7-2.1c.2-1.7.5-3.3.8-5l.6-3.8v-.3a.8.8,0,0,1,.2-.5l.3-2.1a2,2,0,0,0-1.7-2.4M15.7,7.6l2.8.2c0,.4-1.4,1.2-1.8,1.2Zm4.1,5.6a1,1,0,0,1-.7.4.9.9,0,0,0-.5,1.2c.1.4.3,1,0,1.3s-.8-.3-1-.4a1.6,1.6,0,0,0-2.2-.6l-.8.2h0c-.2.1-.4.2-.5,0s0-.3.1-.5.6-1,.3-1.7a3.1,3.1,0,0,0-.7-.9l-.3-.5a.4.4,0,0,1-.1-.3c.1-.3.4-.1.7-.1h1.4c.7-.1.9-.9,1.4-1.3l.3-.4.4.8c.1,1.3,1,1.6,2,1.9s.6,0,.7.4-.3.3-.5.4m1.2-.3v-.3h0Z" />
  <path fill="#ebebdc"
    d="M10,8.7l.2-.2v.2h.1c.3-1.6.6-3.1,1-4.6a21.3,21.3,0,0,0-2.5.3c-1,.3-1.4,1.1-1.3,2.3l.6,6.6c.1,1.6.3,3.2.5,4.7.5-2,.8-4.2,1.2-6.3H9.6a1.3,1.3,0,0,0-.3-1H8.7V10h.2V9.2L9.5,9v.4l.2-.3a.6.6,0,0,1-.1-.4H10Zm-1.5,0H7.9V8.3h.6Zm.3-1.5H8.5l-.7-.5H7.6V6.3h0V6h.6v.2a.5.5,0,0,0,.6.6Z" />
  <path fill="#ebebdc"
    d="M5.4,5.5C2.8,6.6,2.5,6.9,3.3,9.2V8.7h.6a2.2,2.2,0,0,0-.3,1H3.4a.8.8,0,0,1,.2.5,11.7,11.7,0,0,1,.5,1.1h.1v.3C5.1,13.9,6,16.2,7,18.5h.2C7.1,14,6.2,9.6,6.1,5.2l-.7.3" />
</svg>