<?xml version="1.0" encoding="utf-8"?>
<svg xmlns="http://www.w3.org/2000/svg" viewBox="0 0 26 26">
  <path fill="#ebebdc" d="M23.9,12.1c-1.8.1-3.9.8-5.7.8h-.5c-.2.1-.3,0-.4-.1h-.6a19.3,19.3,0,0,1,.1-2.4h.9l3.1.2V6.1H19.5v.3l-1.2.4h-.2a1.9,1.9,0,0,0,.6-.7H15.9v.4c-.3.1-.4,0-.5-.3H11.9v.4h.3a2.4,2.4,0,0,1-.3,1.4V6.8a1.3,1.3,0,0,1-.8-.3h.8L8,6.1c0,1.5,0,3.1-.1,4.7H12v1.2l.3.3,1.4-1H14l.2,1.9v.2l-1.2.2v-.4h.1l-.2-.6-1,.2v.3H9.4c-1.5-.1-2.9-.8-4.3-.9v6c1.4-.1,2.8-.5,4.3-.6s1.7-.3,2.5-.3-.1,2.3-.2,3.3V22h5.4a24.6,24.6,0,0,1-.2-2.8,7.6,7.6,0,0,1-.1-1.5h-.1v-.6h.5c1.6,0,3.2.4,4.7.5h.1l2,.3a4.1,4.1,0,0,0-.1-1.1h0c.1-1.3.1-2.7.1-4.1M13.1,10.2h-.2V10c0-.3.2-.4.5-.5l.2.4Zm-2,4.5h-.5v-.2h.5Zm.1-.6H12l1.6.4v.4H11.9Zm.8,1.3h0v-.2H12l.8-.2c.1.2.4.4,1.1.6L12,15.4m2.4.3h.5v.2h-.4ZM15.5,18h-.4v-.4h.5Zm-.7-4.1h-.3c-.2.1-.4,0-.5-.3v-.4l.9-.2Zm1.3-6.6h.8V7h.1l.8-.2h.6c.1.3,0,1.5-.3,1.6H16.8Zm.1,6.4h-.5v-.2h.5Zm-.6-3h-.4v-.2h.5Zm-.2-1V9.3l.9.3v.2h-1m.7,5.1,1.8-.6,1.2,1c-.3,0-1.8,1-2,.8Zm2.6,1h-.5v-.2h.5Z"/>
  <path fill="#ebebdc" d="M12.1,6.3h3.4V6.2h.4v.2h.9a2.7,2.7,0,0,0,0-.9h0c0-.6.3-.8.3-1.3H11.7c0,.9.2,1.4.2,2.3Z"/>
</svg>