<?xml version="1.0" encoding="utf-8"?>
<svg xmlns="http://www.w3.org/2000/svg" viewBox="0 0 26 26">
  <path fill="#ebebdc" d="M21.4,8.4l-3.2.7a12.5,12.5,0,0,0-.8-1.2L18,4.8,15.7,3.7l-2,2.6H12.4L10.6,3.6l-.6.2v.5c0,.1.1.1.2.1s0,.2-.1.2.2.2.5.2v.3l-.4.2v-1L9.7,4h0l-1.4.6.4,3.2a8.1,8.1,0,0,0-.9,1L4.6,8l-1,2.3,2.5,1.9a5.7,5.7,0,0,0,0,1.3L3.4,15.3l.9,2.4,3.2-.5.9,1-.6,3.2,2.4,1.2L12,19.8h1.4l1.7,2.6,2.4-.9L17.3,20h-.2v-.5h.2v-.2H17v-.3h.2v-.4l.9-1,1.7.4v-.5h.2a.9.9,0,0,0,.3.5l1.2.3,1-2.3-2.6-2a5.7,5.7,0,0,0,.1-1.3l2.6-1.8Zm-5-3.7c.3.1.5.3.5.4v.2h-.5c0-.2-.2-.3-.4-.2s.1-.3.3-.4M10.3,6.3h.8v.2h-.8ZM13,8.9A3.9,3.9,0,0,1,15.8,10l-1.3,1.3a2.2,2.2,0,0,0-1.5-.6,3,3,0,0,0-1.6.5L10.2,9.8A4.1,4.1,0,0,1,13,8.9m-1.2,3.8h-.2v-.5h.1ZM9,11.1h.3l.2-.2V11ZM8.4,5.2h.3v.2Zm0,9.3h.3v.2c-.2,0-.3,0-.4-.2m.5,3.3h.3c0,.2,0,.3-.3.3s-.2,0-.3-.2v-.2Zm-.6,2.7A1,1,0,0,1,9,20c0,.1.1.2.3.4Zm2.4-2.6v-.3h.2v.3Zm.8-.4v-.2h0Zm-.1-.5a4.2,4.2,0,0,1-2.7-4.1,1.9,1.9,0,0,1,.1-.8l1.8.5c-.1.1-.1.2-.1.4a3,3,0,0,0,.5,1.6h.1v.2l.9.6Zm1.1,1.1Zm.4-4.1a.9.9,0,0,1-.9-.9.8.8,0,0,1,.7-.9l.3-.3v.3a.8.8,0,0,1,.8.9.9.9,0,0,1-.9.9m.7.7h.1V15h-.2Zm3,2.6V17h.2v.4Zm.5-4.1a5.2,5.2,0,0,1-.8,2.3l.2.3c0,.2-.1.4-.3.4v-.5a4.1,4.1,0,0,1-2,1.4l-.5-1.8a2.5,2.5,0,0,0,1.7-2.2.4.4,0,0,0-.1-.3l1.8-.4a1.9,1.9,0,0,1,.1.8"/>
</svg>