<?xml version="1.0" encoding="utf-8"?>
<svg xmlns="http://www.w3.org/2000/svg" width="128" height="128" viewBox="0 0 128 128" fill="none">
<path d="M105.075 59.3156C99.5319 64.3299 92.0024 70.1296 86.2685 72.3351C87.404 73.9374 89.3873 75.7785 90.4258 76.8656C83.2123 81.8484 71.7789 89.794 71.7789 78.7977L70.2085 58.2945H69.2482V57.3269H70.1366L68.7571 39.3497L95.0023 36.3304V25.9374L67.8436 22.8271V19.6256C67.8436 17.6306 66.2358 16 64.2525 16H63.7489C63.2953 16 62.8636 16.088 62.4663 16.2451L64.9125 17.6494C64.9125 18.9438 64.1899 19.5848 62.7447 19.5848H60.5769V17.9322C60.311 18.438 60.1577 19.013 60.1577 19.6256V22.8271L32.9991 25.9374V36.3273L59.2443 39.3465L57.7334 59.0674C63.3203 59.8843 66.1169 61.2384 66.1169 63.1329C62.4194 62.649 60.5769 61.6814 60.5769 60.2299C58.9753 60.9179 57.9461 61.6091 57.4863 62.2972L56.2225 78.7977C56.2225 89.794 44.7891 81.8484 37.5756 76.8656C38.6141 75.7785 40.6005 73.9343 41.7329 72.3351C37.025 70.5255 31.2348 66.2872 26.139 62.0552C24.4623 61.2478 23.5114 60.4404 23.2893 59.6298C23.1673 59.5261 23.0484 59.4193 22.9264 59.3156C22.82 59.3407 22.3852 60.5252 21.9097 61.9107H21.9817V63.6041H21.3404C20.8962 64.9425 20.524 66.1207 20.4708 66.2935C18.8973 71.7319 17.7931 78.4961 23.4332 87.8021L24.7564 89.7657C25.1349 89.4326 28.6634 84.8708 29.7958 83.7555C37.9854 95.9298 51.4052 107.287 63.6894 112H64.3182C67.1554 110.91 70.0552 109.465 72.9363 107.737L71.0469 103.52H73.2147C74.5473 104.494 75.6953 105.101 76.6619 105.339C78.3636 104.171 80.0435 102.917 81.692 101.585H79.7181L80.9225 99.6497V96.7467H75.3825C74.0968 96.7467 73.3742 96.1058 73.2147 94.8114C73.2147 93.6835 73.9373 93.0394 75.3825 92.876C76.8277 92.876 77.5503 93.5232 77.5503 94.8114L83.0903 93.8437H84.2946V99.3889C87.0193 97.0012 89.6156 94.4249 92.0024 91.7293V90.9407H92.6906C93.7041 89.7688 94.677 88.5749 95.6029 87.3685C95.0023 87.1706 94.5206 87.07 94.1702 87.07V85.1347C94.9429 85.7002 95.6467 86.1338 96.2974 86.4511C96.9605 85.5588 97.5987 84.6603 98.2055 83.7586C99.3411 84.8771 102.867 89.4389 103.245 89.7688L104.568 87.8052C110.205 78.5024 109.104 71.735 107.531 66.2966C107.405 65.8725 105.325 59.3785 105.075 59.3188V59.3156ZM42.9873 37.0027V35.0674H45.1551C45.1551 36.3618 44.4325 37.0027 42.9873 37.0027ZM51.6585 34.0998H50.6951L46.1186 33.1321V32.1644H47.3229L51.6585 33.1321V34.0998ZM69.2451 24.4231H71.4129V25.3908H69.2451V24.4231ZM67.0772 28.2938H69.2451V29.2614H67.0772V28.2938ZM69.8394 106.423H67.6716V105.456H69.8394V106.423ZM69.8394 88.0346H67.6716V86.0992H69.8394V88.0346ZM83.0903 87.0669H81.8859V86.0992C82.205 84.8111 83.009 84.1639 84.2946 84.1639L85.2581 86.0992L83.0903 87.0669ZM97.3015 71.5842V70.6166H99.4693V73.5196C98.1805 73.5196 97.4579 72.8755 97.3015 71.5842ZM107.18 76.4226C107.18 77.717 106.458 78.3579 105.012 78.3579H99.4725V76.4226L101.881 77.3902H102.845V75.4549H107.18V76.4226Z" fill="#D3D1C3"/>
</svg>