<svg width="800" height="800" viewBox="0 0 800 800" fill="none" xmlns="http://www.w3.org/2000/svg">
  <path d="M120.41 54.3747C102.904 54.3954 86.1207 61.3589 73.7419 73.7377C61.3631 86.1165 54.3991 102.9 54.3785 120.406V679.609C54.3992 697.114 61.3634 713.896 73.7426 726.272C86.1219 738.649 102.905 745.608 120.41 745.625H679.598C697.103 745.608 713.886 738.649 726.265 726.272C738.644 713.896 745.608 697.114 745.629 679.609V120.406C745.608 102.9 738.645 86.1165 726.266 73.7377C713.887 61.3589 697.104 54.3954 679.598 54.3747H120.41Z" fill="#41433e"></path>
  <path d="M679.598 800H120.41C88.5028 799.967 57.91 787.284 35.3393 764.73C12.7686 742.177 0.0616447 711.595 0.00375366 679.688V120.406C0.0409712 88.4837 12.7386 57.8798 35.3111 35.3073C57.8836 12.7348 88.4878 0.0372176 120.41 0H679.598C711.52 0.0372176 742.124 12.7348 764.697 35.3073C787.269 57.8798 799.967 88.4837 800.004 120.406V679.609C799.967 711.53 787.269 742.133 764.696 764.703C742.123 787.273 711.519 799.967 679.598 800V800ZM120.41 54.3747C102.904 54.3954 86.1207 61.3589 73.7419 73.7377C61.3631 86.1165 54.3991 102.9 54.3785 120.406V679.609C54.3992 697.114 61.3634 713.896 73.7426 726.272C86.1219 738.649 102.905 745.608 120.41 745.625H679.598C697.103 745.608 713.886 738.649 726.265 726.272C738.644 713.896 745.608 697.114 745.629 679.609V120.406C745.608 102.9 738.645 86.1165 726.266 73.7377C713.887 61.3589 697.104 54.3954 679.598 54.3747H120.41Z" fill="#cbc9b0"></path>
  <path d="M449.597 324.173L551.106 223.143L576.483 248.401L474.974 349.43L449.597 324.173Z" fill="#cacfbe"></path>
  <path d="M449.597 223.143L513.04 160L551.106 248.401L487.663 311.544L449.597 223.143Z" fill="#cacfbe"></path>
  <path d="M576.483 349.43L639.926 286.287L551.106 248.401L487.663 311.544L576.483 349.43Z" fill="#cacfbe"></path>
  <path d="M472.644 304.548C446.09 278.12 403.038 278.12 376.485 304.548L244.266 436.143C218.379 461.908 219.594 537.769 220.116 570.358C220.176 574.085 220.226 577.246 220.226 579.701C222.693 579.701 225.869 579.751 229.613 579.811C262.357 580.33 338.577 581.54 364.465 555.775L496.683 424.18C523.237 397.751 523.237 354.903 496.683 328.474L472.644 304.548Z" fill="#cacfbe"></path>
</svg>