<svg width="513" height="513" viewBox="0 0 513 513" fill="none" xmlns="http://www.w3.org/2000/svg">
  <path d="M77.1401 34.8049C53.8401 34.8049 34.8801 53.7649 34.8801 77.0649V434.955C34.8801 458.255 53.8401 477.215 77.1401 477.215H435.03C458.33 477.215 477.29 458.255 477.29 434.955V77.0649C477.29 53.7649 458.33 34.8049 435.03 34.8049H77.1401Z" fill="#41433e"></path>
  <path d="M435.02 512.005H77.1301C34.6401 512.005 0.0700684 477.435 0.0700684 434.945V77.0649C0.0800684 34.5749 34.6501 0.00488281 77.1401 0.00488281H435.03C477.52 0.00488281 512.09 34.5749 512.09 77.0649V434.955C512.08 477.435 477.51 512.005 435.02 512.005ZM77.1401 34.8049C53.8401 34.8049 34.8801 53.7649 34.8801 77.0649V434.955C34.8801 458.255 53.8401 477.215 77.1401 477.215H435.03C458.33 477.215 477.29 458.255 477.29 434.955V77.0649C477.29 53.7649 458.33 34.8049 435.03 34.8049H77.1401Z" fill="#d2d0b9"></path>
  <path d="M221.29 205.405L161.19 196.955C161.81 165.185 170.58 139.475 187.49 119.825C204.39 100.185 228.42 90.3647 259.57 90.3647C292.44 90.3647 316.39 99.3647 331.41 117.365C346.44 135.365 353.95 156.335 353.95 180.285C353.95 198.915 350.35 214.525 343.15 227.125C335.95 239.725 323.82 253.615 306.76 268.805C294.71 279.605 287.39 287.785 284.81 293.335C282.23 298.895 280.94 309.105 280.94 323.975H224.59V313.405C224.59 293.845 225.65 279.795 227.76 271.265C229.87 262.735 237.97 251.585 252.06 237.805C263.8 226.385 271.9 216.555 276.36 208.335C280.82 200.115 283.05 190.295 283.05 178.875C283.05 168.395 280.31 160.565 274.83 155.395C269.35 150.225 262.93 147.645 255.58 147.645C232.87 147.645 221.45 166.895 221.29 205.405ZM221.29 347.445H284.21V415.765H221.29V347.445Z" fill="#d2d0b9"></path>
</svg>