<svg width="513" height="513" viewBox="0 0 513 513" fill="none" xmlns="http://www.w3.org/2000/svg">
  <path d="M77.1401 34.8049C53.8401 34.8049 34.8801 53.7649 34.8801 77.0649V434.955C34.8801 458.255 53.8401 477.215 77.1401 477.215H435.03C458.33 477.215 477.29 458.255 477.29 434.955V77.0649C477.29 53.7649 458.33 34.8049 435.03 34.8049H77.1401Z" fill="#41433e"></path>
  <path d="M435.02 512.005H77.1301C34.6401 512.005 0.0700684 477.435 0.0700684 434.945V77.0649C0.0800684 34.5749 34.6501 0.00488281 77.1401 0.00488281H435.03C477.52 0.00488281 512.09 34.5749 512.09 77.0649V434.955C512.08 477.435 477.51 512.005 435.02 512.005ZM77.1401 34.8049C53.8401 34.8049 34.8801 53.7649 34.8801 77.0649V434.955C34.8801 458.255 53.8401 477.215 77.1401 477.215H435.03C458.33 477.215 477.29 458.255 477.29 434.955V77.0649C477.29 53.7649 458.33 34.8049 435.03 34.8049H77.1401Z" fill="#cbc9b0"></path>
  <path d="M401.02 188.635C399.73 186.315 397.46 184.975 395.23 183.945C394.43 183.575 393.62 183.235 392.8 182.915C388.49 181.225 383.99 180.185 379.5 179.195C345.01 171.645 309.96 167.455 274.85 166.575C274.84 165.035 274.82 163.085 274.81 160.445C274.78 155.005 274.71 149.395 271.8 144.405C270.19 141.645 267.47 139.115 264.13 137.455C264 135.405 263.69 133.375 262.91 131.505C261.64 128.465 258.8 125.885 255.62 126.065C252.66 126.235 250.21 128.745 249.1 131.605C248.4 133.395 248.13 135.305 248.02 137.235C244.48 138.925 241.68 141.635 240.09 144.575C237.54 149.265 237.46 154.475 237.41 159.535C237.38 162.665 237.36 164.875 237.33 166.585C202.19 167.455 167.12 171.655 132.6 179.205C128.12 180.185 123.62 181.235 119.3 182.925C118.48 183.245 117.67 183.585 116.87 183.955C114.64 184.985 112.37 186.325 111.08 188.645C109.9 190.775 109.71 193.485 110.14 195.965C111.71 205.015 120.14 210.005 127.78 212.995C163.91 227.145 203.68 225.895 239.55 240.875C240.53 241.285 241.55 241.745 242.2 242.675C242.9 243.685 243.03 245.055 243.13 246.335C245.33 274.315 247.52 302.285 249.72 330.265C240.1 331.405 230.08 332.715 221.96 338.725C220.52 339.795 219.14 341.025 218.21 342.675C214.77 348.805 219.33 356.995 224.85 360.645C231.39 364.975 239.5 365.875 246.72 363.465C249.99 362.375 253.65 360.935 255.21 357.385C255.57 356.575 255.83 355.685 256.04 354.775C256.26 355.685 256.52 356.575 256.87 357.385C258.43 360.935 262.09 362.375 265.36 363.465C272.58 365.875 280.69 364.975 287.23 360.645C292.74 356.995 297.31 348.805 293.87 342.675C292.95 341.025 291.56 339.795 290.13 338.725C282.02 332.705 271.99 331.405 262.37 330.265C264.57 302.285 266.76 274.305 268.96 246.335C269.06 245.045 269.19 243.685 269.89 242.675C270.54 241.745 271.56 241.285 272.54 240.875C308.42 225.895 348.18 227.145 384.31 212.995C391.95 210.005 400.37 205.025 401.94 195.965C402.39 193.475 402.21 190.765 401.02 188.635Z" fill="#cacfbe"></path>
</svg>