<svg width="513" height="513" viewBox="0 0 513 513" fill="none" xmlns="http://www.w3.org/2000/svg">
  <path d="M77.1401 34.8049C53.8401 34.8049 34.8801 53.7649 34.8801 77.0649V434.955C34.8801 458.255 53.8401 477.215 77.1401 477.215H435.03C458.33 477.215 477.29 458.255 477.29 434.955V77.0649C477.29 53.7649 458.33 34.8049 435.03 34.8049H77.1401Z" fill="#41433e"></path>
  <path d="M435.02 512.005H77.1301C34.6401 512.005 0.0700684 477.435 0.0700684 434.945V77.0649C0.0800684 34.5749 34.6501 0.00488281 77.1401 0.00488281H435.03C477.52 0.00488281 512.09 34.5749 512.09 77.0649V434.955C512.08 477.435 477.51 512.005 435.02 512.005ZM77.1401 34.8049C53.8401 34.8049 34.8801 53.7649 34.8801 77.0649V434.955C34.8801 458.255 53.8401 477.215 77.1401 477.215H435.03C458.33 477.215 477.29 458.255 477.29 434.955V77.0649C477.29 53.7649 458.33 34.8049 435.03 34.8049H77.1401Z" fill="#cbc9b0"></path>
  <path d="M167.24 223.585L169.6 225.845L184.77 226.275L187.31 226.125L190.06 226.005L199.34 230.455C197.1 231.425 194.87 232.525 192.58 233.385C188.61 234.875 184.85 234.235 180.63 234.275C173.77 234.335 166.78 238.305 160.45 240.775C155.95 242.525 151.44 244.275 146.94 246.035C145.07 246.765 141.18 245.775 139.21 245.695C139.12 245.695 139.34 251.925 139.21 252.485C138.66 254.825 139.32 254.495 136.79 255.105C133.86 255.805 130.39 254.585 127.41 254.605C122.34 254.635 114.09 253.225 109.23 255.175C109.04 255.255 108.84 255.335 108.66 255.425C106.92 256.275 105.43 257.545 103.97 258.805C102.66 259.945 101.33 261.105 100.38 262.565C99.43 264.025 98.9001 265.835 99.3301 267.515C99.4501 267.995 99.66 268.465 100.02 268.805C100.35 269.125 100.79 269.295 101.21 269.475C103.14 270.255 105.33 270.905 107.05 272.015C104.74 273.865 102.17 276.495 100.85 279.215C99.96 281.035 98.32 285.915 98.64 287.875C99.41 291.415 99.7901 295.365 101.32 298.645C104.1 304.595 110.42 308.585 115.69 312.065C121.91 316.175 128.39 319.885 134.4 324.295C140.38 328.675 146.31 333.505 153.57 335.595C158.68 337.065 164.08 337.065 169.4 337.045C222.88 336.895 276.35 336.795 329.82 336.865C332.25 336.865 334.67 336.875 337.1 336.875C344.07 336.885 351.04 336.895 358.01 336.915C359.99 336.915 361.99 336.915 363.91 336.435C365.94 335.915 367.8 334.875 369.62 333.835C385.75 324.545 400.75 314.075 414.66 301.725C417.52 299.195 420.45 296.535 422.02 293.055C424.21 288.185 423.96 279.825 422.06 274.865C421.46 273.285 416.19 266.425 414.49 266.435C417.54 266.415 420.59 266.405 423.64 266.385C423.06 260.675 422.47 254.955 421.89 249.245C417.69 249.235 413.49 249.235 409.29 249.235C403.96 249.235 396.81 244.625 391.79 242.935C383.38 240.095 374.8 237.775 366.1 235.985C343.59 231.345 335.7 231.595 312.93 230.275V225.055C312.93 228.155 339.75 218.825 343.07 218.055C342.59 213.385 342.12 208.725 341.64 204.055C341.64 202.875 316.38 196.885 314.19 196.265C307.57 194.395 300.96 192.645 294.28 191.015C292.93 190.685 291.52 190.325 290.5 189.375C288.68 187.695 289.48 182.985 289.37 180.745C289.35 180.425 289.32 180.065 289.08 179.845C288.86 179.645 288.55 179.635 288.26 179.615C276.19 179.225 264.13 178.805 252.07 178.395C252.23 178.395 249.61 183.665 249.28 184.125C247.8 186.175 245.9 187.925 243.75 189.255C239.37 191.975 233.55 192.815 228.66 194.365C219.78 197.175 210.61 201.445 201.17 201.595C199.39 201.625 197.58 201.505 195.84 201.875C193.18 202.435 187.26 205.015 185.38 206.905C184.8 207.495 185.07 207.505 184.8 207.495L170.95 207.335L167.26 209.725L91.47 208.385L84.24 205.665L73.99 205.445L73.98 205.985L71.86 210.385L71.75 218.725L73.67 223.625L84.59 223.865L91.92 221.595L167.24 223.585Z" fill="#cacfbe"></path>
</svg>