<svg xmlns="http://www.w3.org/2000/svg" xmlns:xlink="http://www.w3.org/1999/xlink" viewBox="-32 -32 400 400">
	<path d="
M324.09,5.57

c0.01-3.33-0.67-4.74-2.64-5.28
c-0.8-0.22-1.81-0.3-3.08-0.29
c-1.89,0.01-3.78,0.01-5.67,0.01 
c-31.54,0.08-63.09,0.1-94.63,0.09
c-11.22,0-22.44,0-33.66-0.01
c-0.95,0-1.89,0-2.84,0
c-2.67,0-5.33,0-8,0
c-3.8,0-7.6,0-11.39,0 
c-0.04,0-0.08,0-0.13,0
c-0.04,0-0.08,0-0.13,0
c-3.8,0-7.6,0-11.39,0
c-2.67,0-5.33,0-8,0
c-0.95,0-1.89,0-2.84,0 
c-11.22,0-22.44,0-33.65,0.01
c-31.55,0-63.09-0.01-94.64-0.09

C9.5,0.01,7.61,0.01,5.72,0
C4.44,0,3.44,0.07,2.64,0.29 
C0.67,0.83-0.01,2.24,0,5.57
C0.17,77.98,0.13,150.4,0.1,222.82

c-0.01,11.54,2.33,22.56,6.87,33.11 
c9.94,23.08,27.09,39.88,47.45,53.72
c14.65,9.96,30.16,17.91,46.31,24.33
c1.76,0.7,3.52,1.38,5.29,2.04 
c13.28,4.97,26.97,8.96,40.97,12.21
c4.96,1.15,9.9,3.03,15.05,2.87
c5.15,0.16,10.09-1.72,15.05-2.87
c14-3.24,27.69-7.24,40.97-12.21 
c1.77-0.66,3.53-1.34,5.28-2.04
c16.15-6.42,31.66-14.37,46.31-24.33
c20.36-13.84,37.51-30.63,47.45-53.72 
c4.54-10.55,6.88-21.58,6.87-33.11

C323.96,150.4,323.92,77.98,324.09,5.57
z
"
fill="#383b35"
stroke="#cbc9b0"
stroke-width="30.48"
></path>
</svg>