<svg width="143" height="65" viewBox="0 0 143 65" fill="none" xmlns="http://www.w3.org/2000/svg">
<g clip-path="url(#clip0)">
<path d="M15.0757 32.5678C15.0757 32.3305 15.3617 32.2119 15.9506 32.2119C15.9506 32.0425 15.8328 31.9239 15.5972 31.9069C15.5972 31.7036 15.715 31.585 15.9506 31.5511C16.4722 31.9916 16.8928 32.2119 17.1788 32.2119V32.3814H17.0106C16.8423 32.3814 16.6068 32.2797 16.3039 32.0764V32.3814C16.4553 32.4661 16.59 32.5339 16.7246 32.6017H18.4239C18.4239 32.2458 18.3566 32.0086 18.2557 31.89H18.609C18.609 32.1103 18.6763 32.3475 18.8109 32.6017H35.8047L35.6364 31.6697H35.1821V31.5341C35.2831 31.5341 35.4177 31.5002 35.6028 31.4155L33.7183 20.6387H0C0.992705 27.1116 4.0213 32.2458 15.1934 32.5847C15.1598 32.5678 15.1093 32.5678 15.0757 32.5678ZM15.7823 30.043H15.6141V29.738H15.7823V30.043ZM16.8423 31.89L16.489 31.7205C16.6068 31.5511 16.6573 31.3139 16.6573 31.0089H17.0106C17.0106 31.1275 16.9433 31.1783 16.8423 31.1783C16.8423 31.4155 16.9601 31.5341 17.1957 31.5341C17.1788 31.7714 17.0611 31.89 16.8423 31.89ZM29.3437 28.6535C29.1418 28.6535 29.024 28.5349 28.9904 28.2977V28.1621H29.3437L29.697 28.2977C29.697 28.5349 29.5792 28.6535 29.3437 28.6535ZM30.2186 25.1121V24.8071H30.5719C30.5719 25.0104 30.4542 25.1121 30.2186 25.1121ZM30.757 24.1293H30.2354V23.7734H30.4037C30.6393 23.7904 30.757 23.909 30.757 24.1293ZM30.4037 23.1126V22.7568H30.5719V23.1126H30.4037ZM35.1485 32.2119H35.3167V32.5169H35.1485V32.2119ZM34.2736 29.8566H34.4418V30.1616H34.2736V29.8566ZM33.3986 28.1791H33.752V28.3146H33.3986V28.1791ZM32.8602 27.5013H32.5069V27.3318H32.8602V27.5013ZM32.1704 24.3157H32.5237V24.6207H32.1704V24.3157ZM31.632 22.9432V23.299C31.4301 23.299 31.3123 23.1804 31.2786 22.9432H31.632ZM31.2786 25.3324H31.632V25.8238H31.2786V25.3324ZM31.2786 28.6535H31.4469V28.9585H31.2786V28.6535ZM31.1104 26.1288H30.757V25.9932H31.1104V26.1288ZM29.8821 21.0792C30.0504 21.0792 30.2859 20.9776 30.5888 20.7742H30.757C30.757 20.9267 30.8075 21.0962 30.9253 21.2995V21.6045C30.572 21.4351 30.4037 21.2487 30.4037 21.0792C30.2859 21.0792 30.2354 21.147 30.2354 21.2995H29.8821V21.0792ZM29.8821 27.3318C29.5288 27.1624 29.3605 26.976 29.3605 26.8066C29.4783 26.8066 29.6465 26.7557 29.8821 26.6371V27.3318ZM29.3437 24.3157H29.697V24.6207C29.4951 24.6207 29.3773 24.519 29.3437 24.3157ZM27.5938 23.6548C27.9472 23.6548 28.1154 23.3159 28.1154 22.6382C28.2332 22.6382 28.2837 22.689 28.2837 22.7737C28.4015 22.7737 28.5697 22.7229 28.8053 22.6382C28.923 22.9601 29.2091 23.1295 29.6802 23.1295C29.6802 23.2821 29.2764 23.6209 28.4519 24.1462V24.6376H28.8053V24.8071L28.637 25.6543C28.4351 25.6543 28.3173 25.5526 28.2837 25.3493H28.637V25.129L28.1154 24.1462L28.2837 23.7904C28.1659 23.7904 28.1154 23.7396 28.1154 23.6548C27.9135 23.6548 27.7957 23.7565 27.7621 23.9598L27.9303 24.3157C27.8126 24.3157 27.7621 24.3665 27.7621 24.4512L27.2405 24.1462V23.7904L27.0722 23.4854C27.1732 23.4684 27.3583 23.5362 27.5938 23.6548ZM21.2338 24.8071H21.402V25.1629H21.2338V24.8071ZM20.7122 32.5678H20.5439C20.342 32.4492 20.1065 32.3983 19.8373 32.3983V32.2289H20.1906C20.4262 32.3475 20.5944 32.3983 20.7122 32.3983V32.5678ZM18.9455 28.7044C19.0633 28.7044 19.1138 28.7552 19.1138 28.8399L19.6354 28.5349H19.8036C19.8036 28.7044 19.9214 28.9924 20.157 29.3822C19.9214 29.5008 19.7531 29.5516 19.6354 29.5516V29.7211C19.8036 30.043 19.9887 30.2124 20.157 30.2124C20.157 30.3311 20.0897 30.3819 19.9887 30.3819C19.9887 30.5852 20.157 30.6869 20.5103 30.6869L20.342 30.9919C19.3998 31.3477 18.9287 31.585 18.9287 31.7036L18.0538 31.1783L18.7604 30.0261L18.4071 29.8566C18.7773 29.3822 18.9455 28.9924 18.9455 28.7044ZM18.2389 30.5175H17.8855V30.3819H18.2389V30.5175ZM17.5322 29.1958H18.0538V29.3652H17.5322V29.1958ZM17.7173 31.0089C17.5995 31.0089 17.549 31.1444 17.549 31.4155H17.3808C17.3808 31.0258 17.3134 30.7377 17.2125 30.5344L16.8592 30.7038H16.6909V30.043C17.1788 30.043 17.5322 30.365 17.7173 31.0089ZM16.6573 29.0094H16.1357V28.8399H16.6573V29.0094ZM16.489 28.3485C16.2871 28.3485 16.1693 28.2469 16.1357 28.0435H16.489V28.3485ZM15.9506 23.8243L16.1188 24.1801C15.7319 24.3835 15.3785 24.4851 15.0588 24.4851L14.8906 24.1801C15.2776 23.9429 15.6309 23.8243 15.9506 23.8243ZM13.6623 32.0764H13.309C13.5782 31.5172 14.0493 30.9919 14.7223 30.5175C14.7223 30.6869 15.0084 30.9241 15.5972 31.1783C15.429 31.5341 15.2439 31.7036 15.0757 31.7036L14.7223 31.5341C14.7223 31.6019 14.369 31.7714 13.6623 32.0764Z" fill="#EBEBDC"/>
<path d="M20.2412 36.3804C20.2412 36.9395 19.8205 37.2784 19.0129 37.3971C19.0129 37.2784 18.8951 37.2276 18.6596 37.2276C18.8951 36.8887 19.0466 36.6176 19.1307 36.3804H18.2726L18.138 37.2276C18.138 37.4648 18.3735 37.5834 18.8447 37.5834V38.0748L18.6764 38.9221H18.3231C18.3231 38.8035 18.3735 38.634 18.4913 38.4307L18.3231 38.0748H18.4913C18.4913 37.9054 18.3735 37.7868 18.138 37.7698C17.9361 37.7698 17.8183 37.8715 17.7846 38.0748V38.4307L17.9529 38.7357H17.5996C17.5996 38.6171 17.5323 38.4476 17.4313 38.2443L17.5996 37.9393C17.364 37.4309 17.2462 37.0751 17.2462 36.8718H17.5996V36.5668H17.2462V36.3973H14.958C14.958 36.6684 15.2608 36.8209 15.8329 36.8887V37.0582C15.5637 37.0582 15.3281 37.1259 15.1262 37.2276C14.8738 36.9395 14.7224 36.6515 14.6383 36.3804H10.5497C11.6265 43.0905 23.2193 48.3603 36.0235 48.3603H38.581L36.4778 36.3804H20.2412ZM16.1862 38.4137V37.9223H16.3545C16.3545 38.0071 16.405 38.1765 16.5227 38.4137H16.1862ZM17.2462 39.7354H17.078C17.078 39.566 17.1958 39.4474 17.4313 39.3796H17.5996C17.5996 39.6168 17.4818 39.7354 17.2462 39.7354ZM19.8878 38.7187H19.7196V38.2273H19.8878V38.7187ZM22.6977 37.2107H22.1761C22.1761 36.9734 22.0583 36.8548 21.8228 36.8548C21.8228 36.6854 21.9405 36.5668 22.1761 36.5498C22.5294 36.7193 22.6977 36.8887 22.6977 37.0412V37.2107ZM31.7835 40.0065H31.1609V39.8371H31.7835V40.0065ZM31.9517 38.5832C31.8339 38.5832 31.7835 38.5324 31.7835 38.4137C31.4638 38.4137 31.1946 38.4815 30.9927 38.5832H30.7739V38.4137C31.0095 38.4137 31.346 38.2443 31.7835 37.8885C32.0527 37.8885 32.1873 38.0071 32.1873 38.2443L31.9517 38.5832ZM33.3651 37.5326H33.9876V37.8885C33.7184 37.7698 33.5165 37.719 33.3651 37.719V37.5326ZM34.3746 41.2435H33.9708V41.0741H34.3746V41.2435ZM34.3746 39.6507H33.7521V39.2949C34.0213 39.4135 34.2232 39.4643 34.3746 39.4643V39.6507Z" fill="#EBEBDC"/>
<path d="M141.957 24.7223C142.445 23.4515 142.764 22.079 142.983 20.6387H109.298L107.195 32.6186H126.545C136.001 32.6186 140.055 29.4499 141.889 24.9087H141.637V24.7393H141.957V24.7223ZM118.031 23.7396H118.435V24.2648C118.199 24.2648 118.065 24.1462 118.031 23.909V23.7396ZM116.231 25.3324H116.634V25.5018H116.231V25.3324ZM116.618 31.3647V31.5341H116.214V31.3647H116.618ZM115.827 26.044H116.231V26.2135H115.827V26.044ZM112.613 21.2656C112.764 21.2656 112.966 21.2148 113.236 21.0962C113.438 21.452 113.639 21.6215 113.808 21.6215L114.211 21.452C114.413 22.7568 114.834 23.4007 115.44 23.4007V23.5701H115.221L114.211 23.2143L113.808 23.3837C113.808 22.9093 113.623 22.672 113.236 22.672C113.236 22.5534 113.286 22.5026 113.404 22.5026C113.404 22.2145 113.135 22.0281 112.613 21.9773V21.2656ZM114.43 24.2648H114.026V24.0954C114.296 24.0954 114.43 23.9768 114.43 23.7396H114.834L115.457 24.0954C115.457 24.3326 115.322 24.4512 115.053 24.4512H114.649V24.0954C114.498 24.0954 114.43 24.1462 114.43 24.2648ZM108.609 32.2458H108.39C108.003 32.0764 107.818 31.89 107.818 31.7205V31.5511H107.986C108.39 31.7205 108.609 31.9069 108.609 32.0764V32.2458ZM108.794 24.6207H109.635V24.9765H108.794V24.6207ZM109.803 29.416H109.012V28.8908H109.181C109.467 29.0094 109.685 29.0602 109.803 29.0602V29.416ZM110.813 29.416H110.594C110.325 29.416 110.19 29.2974 110.19 29.0602L110.594 28.8908L110.813 29.2466V29.416ZM111.435 27.6368V27.281H111.839C111.822 27.5182 111.688 27.6368 111.435 27.6368ZM112.007 26.7557H112.226L113.017 26.9252V27.0946H112.849L112.007 26.9252V26.7557ZM115.827 31.89C115.423 32.0594 115.204 32.2458 115.204 32.4153C113.471 32.2119 112.613 31.9747 112.613 31.7036C113.051 31.7036 113.387 31.6527 113.623 31.5341C115.759 31.6189 116.836 31.9239 116.836 32.4153C116.163 32.3475 115.827 32.1611 115.827 31.89ZM118.031 24.8071H118.435V24.9765H118.031V24.8071ZM118.653 31.7205H118.435V31.1952H118.653V31.7205ZM118.653 30.4497V30.4836H118.266V30.3141C118.266 30.1108 118.401 29.9922 118.67 29.9583V30.4497H118.653ZM118.653 23.0279V23.5532H118.435L118.031 22.1298C118.182 22.1298 118.25 22.079 118.25 21.9604L118.653 22.1298C118.653 22.2484 118.586 22.2993 118.435 22.2993L118.653 23.0279ZM135.782 21.3503H136.186C136.186 21.5876 136.051 21.7062 135.782 21.7062H135.378C135.395 21.5029 135.529 21.3842 135.782 21.3503ZM134.991 24.1801H134.604V24.0107H135.008V24.1801H134.991ZM135.21 25.4171V25.2476C135.614 25.2476 135.95 25.1968 136.186 25.0782L136.404 25.434H135.21V25.4171ZM138.036 24.0107L137.027 24.1801V23.8243H138.036V24.0107ZM138.995 23.4684H137.195C137.195 23.2651 137.33 23.1465 137.599 23.1126L138.036 23.282L138.205 22.9262C138.44 23.0448 138.777 23.0957 139.214 23.0957L138.995 23.4684ZM139.231 22.5873H138.827C138.827 22.384 138.962 22.2654 139.231 22.2315V22.5873ZM139.399 22.5873V22.2315C139.685 22.2315 139.837 22.3501 139.837 22.5873H139.399ZM140.813 25.0782H140.644V24.5529H140.813L141.216 24.7223C141.2 24.9596 141.065 25.0782 140.813 25.0782ZM141.031 24.1801C140.796 24.1801 140.661 24.0615 140.628 23.8243H140.796C141.065 23.8243 141.2 23.9429 141.2 24.1801H141.031Z" fill="#EBEBDC"/>
<path d="M108.962 36.8209C108.693 37.7698 108.44 38.2443 108.171 38.2443H108.003C108.003 37.9732 107.936 37.7359 107.784 37.5326H108.003C107.751 37.2784 107.498 36.9057 107.229 36.3804H106.505L104.402 48.3603H106.96C119.764 48.3603 131.357 43.0905 132.434 36.3804H108.037C108.323 36.6684 108.625 36.8209 108.962 36.8209ZM106.758 43.3785H106.354V43.2091H106.758V43.3785ZM106.758 40.0065H106.59H106.354V39.6507H106.573H106.741V40.0065H106.758ZM107.767 40.8877C108.037 40.8877 108.171 41.0063 108.171 41.2435L109.181 41.0741H109.399V42.4974H108.558L108.777 42.1416V41.6163H107.767C107.532 41.6163 107.397 41.4977 107.364 41.2605C107.364 41.0402 107.498 40.9216 107.767 40.8877ZM107.364 42.8533C107.683 43.0905 107.952 43.2091 108.154 43.2091V43.5649C107.868 43.5649 107.599 43.6327 107.364 43.7344L106.96 42.8533H107.364ZM107.364 44.0902V43.9208H108.154C108.154 44.0902 108.424 44.3274 108.945 44.6325C108.861 44.6155 108.339 44.4461 107.364 44.0902ZM109.399 44.8019H109.803V44.9713H109.399V44.8019ZM109.972 46.92H109.568V46.5641H109.972V46.92ZM111.368 46.7505C111.368 46.9878 111.233 47.1064 110.964 47.1064V46.5811H111.368V46.7505ZM112.159 44.0902H112.596V44.4461C112.378 44.4461 112.226 44.3274 112.159 44.0902ZM113 45.5136H112.596V45.3441H113V45.5136ZM113 43.0227H112.596C112.361 43.0227 112.209 42.9041 112.159 42.6669H113V43.0227ZM113 41.7857H112.781L112.378 41.6163C112.647 41.3282 112.781 41.091 112.781 40.9046H113V41.7857ZM114.986 36.8209H115.204V37.7021L114.195 37.8715H113.976C114.649 37.4309 114.986 37.0751 114.986 36.8209ZM112.781 38.0579V37.7021H113.572V37.8715C113.572 38.1087 113.438 38.2273 113.168 38.2273H112.159V37.8715L112.596 38.041H112.781V38.0579ZM111.772 36.8209H112.176V37.3462C111.94 37.3462 111.806 37.2276 111.772 36.9904V36.8209ZM111.2 39.4813C111.519 39.7185 111.789 39.8371 111.991 39.8371V40.0065H111.772C111.503 39.8879 111.318 39.8371 111.2 39.8371V39.4813ZM110.796 40.5488H111.2V40.7182H110.796V40.5488ZM110.796 43.2091H111.2V43.3785H110.796V43.2091ZM110.19 43.548H109.972C109.736 43.548 109.601 43.4294 109.568 43.1921V42.8363H110.359L110.19 43.548ZM109.399 39.2949L109.568 39.6507L109.164 39.8202H108.945V39.6507C109.012 39.4135 109.164 39.2949 109.399 39.2949Z" fill="#EBEBDC"/>
<path d="M94.2396 64.9661C94.4246 65 94.5929 65.017 94.778 65.017C95.4005 65.017 96.0062 64.8306 96.5278 64.4578C97.2009 63.9833 97.6383 63.2886 97.7897 62.4753L106.556 12.4544C106.69 11.6411 106.522 10.8277 106.051 10.1499C105.58 9.47214 104.89 9.03158 104.082 8.87908L91.6653 6.67626V6.13403C91.6653 4.43956 90.3024 3.05009 88.603 3.05009H76.2194L76.1353 2.54175C75.8493 0.864217 74.2509 -0.254136 72.602 0.0508695L55.6923 3.05009H53.8247C53.1012 3.05009 52.445 3.30426 51.9234 3.72788L38.3452 6.13403C37.5376 6.26959 36.8478 6.72709 36.3767 7.40488C35.9055 8.08267 35.7205 8.89602 35.8719 9.70937L37.79 20.6557L39.8932 32.6356L40.5662 36.499L42.6694 48.4789L43.9818 55.9515H44.15L44.2005 56.3074H44.0491L44.6548 59.7641C44.924 61.2552 46.2027 62.3058 47.6666 62.3058C47.8348 62.3058 48.0199 62.2889 48.205 62.255L57.4758 60.6113H57.5263L60.3025 60.1199V60.0861H60.4708L60.6727 60.0522H66.2924L94.2396 64.9661ZM48.3228 58.1882L39.8595 9.84492L50.7625 7.91323V56.9174C50.7625 57.2055 50.7961 57.4766 50.8802 57.7477L48.3228 58.1882ZM44.2678 54.7993L43.9145 54.8501L44.0491 53.969L44.2173 53.9182L44.2678 54.7993ZM42.9891 45.3102H42.6357L42.5853 44.5986C42.7872 44.7172 43.09 44.768 43.5107 44.7341C43.5443 44.8527 43.477 44.9036 43.3424 44.9036C43.3761 45.1408 43.5107 45.2594 43.7462 45.2594C43.6284 45.4289 43.578 45.7847 43.6116 46.3269C43.2919 46.0897 43.0396 45.988 42.8713 46.0219L43.0396 45.6661L42.9891 45.3102ZM41.3065 31.8731H41.4748L41.5253 32.5848H41.357L41.3065 31.8731ZM42.9386 44.4122C42.7367 44.4122 42.6021 44.2936 42.5348 44.0563L42.4843 43.5311L43.2751 43.6666V44.0224C43.3256 44.2597 43.2078 44.3952 42.9386 44.4122ZM43.0732 43.3108C42.8713 43.3447 42.5853 42.938 42.2319 42.1077C42.4002 41.7519 42.6021 41.5824 42.804 41.5824L42.9722 41.5316L43.2415 42.7685C43.2583 42.9041 43.191 43.0735 43.0732 43.3108ZM42.7703 41.413C42.5348 41.2943 42.3497 41.2435 42.1983 41.2435V40.8877L42.3329 39.6507H42.6862C42.7199 40.1252 42.8545 40.5149 43.1237 40.8538C42.8881 40.8538 42.7703 41.0571 42.7703 41.413ZM42.6862 39.4474L41.8954 39.1424C42.0132 38.9051 42.0637 38.651 42.0637 38.3968H42.417L42.6862 39.2779V39.4474ZM42.0637 38.2104L42.0132 37.4987H42.3665L42.417 38.2104H42.0637ZM41.9795 37.3293V36.9734H42.1478L42.1983 37.3293H41.9795ZM42.0637 35.1942L41.8954 35.2451L41.8449 34.8892L42.0637 34.8384V35.1942ZM41.6262 34.0081L41.5757 33.127H41.744C41.744 33.2456 41.8113 33.415 41.9627 33.6184C41.9795 33.8387 41.8618 33.9742 41.6262 34.0081ZM43.864 47.3945C43.864 47.6317 43.7462 47.7503 43.5107 47.7503L43.4602 47.3945H43.864ZM56.0288 6.98127H65.9895L57.6777 54.4265C57.745 54.4774 57.7955 54.579 57.7955 54.7146H57.6441L57.5431 55.3246C57.4927 55.5788 57.4927 55.8329 57.5095 56.0702H54.6828V54.8332C54.666 54.8332 54.6492 54.8332 54.6323 54.8332V54.3418H54.6828V7.21849V6.98127H56.0288ZM55.3895 5.60874V5.43929C55.625 5.43929 55.7428 5.55791 55.7428 5.79513V5.96458C55.5409 5.96458 55.4231 5.84597 55.3895 5.60874ZM88.7208 59.9844L77.6833 58.0188L74.6883 57.4935L69.0686 56.4938L66.6121 56.0532L63.4489 55.494L61.4971 55.1551L69.9267 6.96432L69.9604 6.79487L70.8689 6.96432L72.9889 7.3371L75.0248 7.69295L77.0607 8.04878L87.7113 9.94659L89.663 10.2855L91.6148 10.6244L102.518 12.5561L94.0545 60.8994L88.7208 59.9844ZM52.2263 18.4698C52.445 18.5715 52.5964 18.6392 52.7142 18.6392C52.731 18.6392 52.731 18.6392 52.7479 18.6392V18.9951H52.7142H52.2263V18.4698ZM51.8729 12.8272C51.8729 12.6239 51.9907 12.5052 52.2263 12.4714V12.9966L51.8729 12.8272ZM52.3945 15.8434V15.4875H52.5628V15.8434H52.3945ZM52.5796 20.0626H52.7142H52.7479V20.4184H52.7142H52.5796V20.0626ZM52.7479 8.40462L52.9161 7.74378H53.0844V7.91323C53.1012 8.23518 52.9834 8.40462 52.7479 8.40462ZM53.8079 19.8762C53.8079 20.232 53.9257 20.4015 54.1612 20.4015L53.993 21.1132H53.6396C53.6396 20.9946 53.5723 20.8251 53.4714 20.5879L53.6396 19.8762H53.8079ZM53.6228 8.26906V7.91323H53.7911V8.26906H53.6228ZM54.3295 11.4208V11.5902H53.9761V11.4208H54.3295ZM53.9761 8.57407V8.26906C54.2117 8.26906 54.3295 8.37073 54.3295 8.57407H53.9761ZM54.2622 49.9531V50.1226C53.9088 49.9531 53.7406 49.7837 53.7406 49.6312V49.4617H54.0939C54.0939 49.5973 54.1444 49.7498 54.2622 49.9531ZM57.2571 56.5277V56.1718H57.4254V56.5277H57.2571ZM57.6104 55.816V55.511H58.132V55.6804C58.0311 55.6804 57.846 55.7313 57.6104 55.816ZM54.2622 58.0357V57.6799H54.6155V58.0357V58.6966C54.4136 58.6966 54.2958 58.5949 54.2622 58.3916V58.0357ZM57.7955 57.8494C57.8628 57.7307 57.9301 57.6291 57.9974 57.5443C58.0984 57.4257 58.2162 57.358 58.3171 57.358V57.951V58.0188V58.1544L58.0984 58.0188L57.7955 57.8494ZM56.9038 58.3916C57.0215 58.3916 57.1898 58.3238 57.4254 58.1713V58.578V58.6966H57.2571C57.173 58.6966 57.1057 58.6796 57.0384 58.6458C56.9711 58.5949 56.9206 58.5102 56.9038 58.3916ZM78.4741 61.0011V60.6452H78.8274C78.8274 60.8825 78.7096 61.0011 78.4741 61.0011ZM55.8606 5.01568L55.0361 5.16818V5.43929H54.8679V5.20207L54.5145 5.2529V5.60874H54.1612V5.32068L53.8079 5.38846V5.79513H53.6396C53.6396 5.64263 53.606 5.52402 53.5387 5.43929L52.731 5.5918V5.30374C52.731 5.15123 52.8488 5.03262 53.0003 5.03262H53.118V4.74456C53.3368 4.74456 53.4377 4.84623 53.4714 5.03262H53.606L53.8247 4.91401V5.03262H54.2622C54.3126 4.98179 54.4136 4.93095 54.5314 4.91401V5.03262H55.8606V5.01568ZM43.0396 46.1914L43.09 46.5472H42.9218L42.8713 46.1914H43.0396ZM42.9386 47.6147L42.8881 47.2589C42.8881 47.0556 43.0059 46.92 43.2415 46.8522L43.2919 47.2081C43.2919 47.4453 43.1742 47.5808 42.9386 47.6147ZM43.3761 48.6314H43.5443L43.9481 48.8009C43.8304 49.0042 43.7799 49.2414 43.7799 49.5125H43.4265L43.3761 48.6314ZM43.9986 49.8684V50.0378H43.6453V49.8684H43.9986ZM43.5611 52.1729L43.477 50.7495L43.6453 50.3937L44.0491 50.5631L43.7462 52.1559H43.5611V52.1729ZM43.9145 55.189V55.0196L44.2678 54.9687L44.3183 55.1382L43.9145 55.189ZM62.5403 59.7133H62.3721V59.6963V59.3744H62.5403V59.6794V59.7133Z" fill="#EBEBDC"/>
<path d="M91.6486 30.9919L89.6969 30.653L87.7451 30.3141L86.0289 30.026L84.4978 20.9776L84.3632 20.0964L80.527 27.5691L79.8035 28.9585L78.7435 28.806L76.7076 28.4671L70.0615 27.3318L75.4457 32.8897V32.7542L76.3206 32.9236V32.5169H76.7244V32.7372C76.7244 33.2794 76.5898 33.6353 76.3206 33.7708L76.9936 34.4656L76.0682 36.2787L72.3161 43.5818L78.8108 40.3115L79.5848 39.9218L80.6279 39.3965L81.4019 39.0068L81.4187 39.0237L82.7816 40.4301L82.7984 40.4471L87.7619 45.5644L88.4686 46.293L87.7619 41.396L87.0216 36.2109L87.7619 35.8381L88.6705 35.3806L89.7137 34.8553L91.6655 33.8725L95.9391 31.7205L91.6486 30.9919ZM75.9504 31.9408C75.7149 31.9069 75.5971 31.7883 75.5971 31.585L75.9504 31.3647C76.186 31.3647 76.3038 31.5002 76.3038 31.7714L75.9504 31.9408ZM75.8327 38.5831L75.7822 38.2273H75.9504L76.0009 38.5831H75.8327ZM78.4743 39.5151L78.1209 39.3456L77.7171 39.5659L77.9863 40.4471V40.6165C77.6666 40.6165 77.3974 40.2607 77.1955 39.549C77.3133 39.549 77.4311 39.3795 77.5489 39.0237L77.9022 39.1931L78.0705 39.1423L78.4743 38.9729V39.5151ZM78.3397 38.2442V38.0748H78.3901H78.7435V38.2442H78.4238H78.3397ZM81.2841 31.585V31.9916V32.1611H81.1159V31.585H81.2168H81.2841ZM79.2314 29.9074V30.4327H79.0632L79.0127 29.9074H79.2314ZM81.4524 34.8214C81.301 34.8214 81.0486 34.4995 80.7121 33.8386C80.8635 33.6353 80.9308 33.3811 80.9308 33.093H81.099C81.301 33.5167 81.486 33.8047 81.6206 33.9403C81.6879 34.025 81.7552 34.0589 81.8057 34.0589V34.4147C81.7721 34.4147 81.7384 34.4147 81.7048 34.4317C81.5365 34.4656 81.4524 34.6011 81.4524 34.8214ZM84.5146 35.8889L84.1613 35.7195V35.0078H84.3295C84.3295 35.2959 84.4473 35.6009 84.6829 35.8889H84.5146ZM86.2813 35.7025L85.4064 34.9909C85.4064 34.8722 85.4569 34.7028 85.5746 34.4656C85.5746 34.347 85.4568 34.2961 85.2213 34.2961V33.9403H85.5746C85.5746 34.1097 85.8102 34.4147 86.2813 34.8214V35.7025ZM86.988 38.1934H86.6346V37.8376H86.988V38.1934ZM87.5096 35.1772H87.3413C87.1057 35.1772 86.988 35.0586 86.988 34.8214L86.6346 34.9909C86.6346 34.8722 86.5673 34.7028 86.4664 34.4656V34.1097H86.6346C86.6346 34.347 86.9207 34.635 87.5096 34.9909V35.1772ZM88.4013 32.0764H89.2762C89.4781 32.0764 89.5959 32.195 89.6296 32.4322V32.6016C89.3604 32.6016 89.1248 32.5508 88.9229 32.4322C88.6873 32.4322 88.5696 32.6016 88.5696 32.9575H88.2162C88.334 32.7542 88.4013 32.4661 88.4013 32.0764ZM89.0912 34.8214C88.9734 34.8214 88.9229 34.7706 88.9229 34.652L88.5696 34.8214V34.2961L88.7378 33.9403C88.62 33.9403 88.5696 33.8894 88.5696 33.7708C88.4518 33.7708 88.4013 33.8386 88.4013 33.9403C88.1658 33.9403 88.048 33.8217 88.048 33.5844C88.2835 33.5844 88.6369 33.4658 89.108 33.2286C89.108 33.7539 89.1585 34.1097 89.2762 34.2961C89.1585 34.2961 89.0912 34.4656 89.0912 34.8214ZM89.6969 33.415C89.6464 33.4658 89.5623 33.4828 89.4445 33.4828V32.9575L89.6969 33.0761L89.7978 33.1269C89.7978 33.2625 89.7642 33.3642 89.6969 33.415ZM90.3362 32.9575H89.9829C89.9829 32.7542 90.1007 32.6355 90.3362 32.6016V32.9575ZM92.0861 32.0764H91.9178V31.7205H92.0861V32.0764ZM92.5236 32.2628C92.4899 32.2628 92.4563 32.2458 92.4394 32.2458L92.5236 32.0764L92.6077 31.9069C92.8096 31.9069 92.9274 32.0255 92.961 32.2628V32.4322C92.7928 32.3305 92.6413 32.2797 92.5236 32.2628Z" fill="#EBEBDC"/>
</g>
<defs>
<clipPath id="clip0">
<rect width="143" height="65" fill="white"/>
</clipPath>
</defs>
</svg>
