<svg width="80" height="80" viewBox="0 0 80 80" fill="none" xmlns="http://www.w3.org/2000/svg">
<path d="M40.238 73.9999C35.6098 74.0297 31.0665 73.1372 26.8463 71.3649C18.3208 67.7864 11.5845 60.8462 8.26102 52.2187C6.63752 48.0027 5.88102 43.5019 6.01702 38.9757C6.19977 32.8259 8.03577 26.8547 11.3593 21.6782C13.9603 17.6279 17.3773 14.1769 21.3978 11.5419C26.8675 7.95069 33.2468 6.03819 39.796 5.99994C45.372 5.97019 50.8588 7.29194 55.7888 9.88444C61.879 13.0889 66.86 18.0572 70.0773 24.1389C72.6783 29.0562 74.0128 34.5302 74 40.0977C73.9533 58.7212 58.887 73.8767 40.238 73.9999ZM54.0718 54.7729C58.1518 50.8842 60.4468 45.4952 60.4 39.8469C60.3108 28.6609 51.2498 19.6382 40.0468 19.5999C34.441 19.5787 29.103 21.8737 25.244 25.9112C21.589 29.7319 19.5575 34.8362 19.5958 40.1402C19.634 45.2784 21.5933 50.2212 25.1208 53.9654L26.0388 54.8834C33.897 62.2912 46.2433 62.2402 54.0675 54.7772L54.0718 54.7729Z" fill="#0D3760"/>
<path d="M54.0719 54.773C46.2434 62.236 33.9014 62.287 26.0431 54.8792L25.1251 53.9612C21.5976 50.2212 19.6341 45.2785 19.6001 40.136C19.5619 34.832 21.5976 29.732 25.2484 25.907C29.1074 21.8695 34.4454 19.5787 40.0511 19.5957C51.2499 19.634 60.3151 28.6567 60.4044 39.8427C60.4511 45.491 58.1519 50.88 54.0761 54.7687L54.0719 54.773Z" fill="#e0e6dc"/>
</svg>
