<svg viewBox="0 0 1460 1080" xmlns="http://www.w3.org/2000/svg">
	<circle fill="56, 75, 133" r="450" transform="translate(728.749 544.312)"/>
	
	<rect height="280" rx="0" width="1230" ry="0" fill="56, 75, 133" transform="translate(115.442 401.443)"/>
	<rect height="180" rx="0" width="1156" ry="0" fill="224, 230, 220" transform="translate(152.929 449.64)"/>
	<circle fill="56, 75, 133" r="400" transform="translate(728.749 544.312)"/>
	<path fill-rule="evenodd" d="M504.55 856.191c-.13-4.61 1.86-8.74 3.18-13 16.2-51.58 33.1-102.93 50.16-154.22 10.51-31.6 20.56-63.35 31-95 1.51-4.59.72-7-3.27-10.18-39.66-31.67-81.34-60.67-122.66-90.15a4580.291 4580.291 0 0 1-66.38-48.25c-10.35-7.62-20.38-15.7-30.51-23.63a30.223 30.223 0 0 1-3.29-3.56c2.23-1.18 4.21-.64 6.08-.64 90.16-.04 180.32-.013 270.48.08 4.8 0 6.86-1.52 8.32-6 12.52-38.52 25.43-76.84 37.9-115.34 12.17-37.63 24-75.39 35.89-113.09 3.64-11.56 7.21-23.09 11.13-35.75 3.91 5.65 5.05 11.28 6.87 16.48 10.05 28.74 20.16 57.46 29.53 86.43 16.86 52.09 33.25 104.35 49.76 156.56 3.33 10.55 3.17 10.6 14.13 10.6h274c-4 5.35-9.19 8.23-13.71 11.67-45.94 35-92.92 68.57-139.94 102.07-24.17 17.22-47.75 35.25-71.72 52.75-2.54 1.85-2.91 3.26-2 6.15 8.59 28.26 17.41 56.43 26.76 84.45 12.387 37.2 24.663 74.446 36.83 111.74 7.1 21.77 13.84 43.66 20.72 65.51.36 1.14 1.32 2.23.3 3.91-4.22-1.29-7.58-4.23-11-6.72a32699.31 32699.31 0 0 1-127.82-92.34c-28.78-20.91-57.41-42-86.07-63.1-3-2.23-5.36-2.9-9-.24-41.52 30.44-83.35 60.47-124.82 91a6101.593 6101.593 0 0 1-98.34 70.88c-.776.433-1.593.766-2.45 1l-.06-.07Z" fill="224, 230, 220"/>
</svg>