<?xml version="1.0" encoding="utf-8"?>
<svg xmlns="http://www.w3.org/2000/svg" viewBox="0 0 26 26">
  <path fill="#85827d" d="M20.7,10.1H15.8L13.2,2.9l-.3-.7L10.7,9l-.4,1H1.8l5.4,4.2H8v-.3h.3v.2c0,.5,0,.8-.2.9l.6.5L8.2,17h0L6.1,23.7l5-3.7.6-.4.8-.6.6-.5h0l1.4,1h0l5,3.6.7.5-1.3-4-1.4-4.3.6-.4.7-.5.8-.6,1.5-1.1,3.3-2.6ZM7.5,13.3c-.2.1-.3,0-.3-.2l.2-.2c.2-.1.3,0,.4.2ZM8.4,19v-.3h.1v.3Zm2.3.4h-.3l-.3.2.4.7v.2c-.3,0-.6-.2-.8-.8s.1-.2.2-.5h.4l.4-.2Zm-.3-1.1-.4,1-.4-1.4,1.5-.9v1.1l-.3.8Zm1.6-6v.5h-.2v-.5H12Zm-1.7-1.2.4,2-2.3-.8,1.4-1.1Zm1.9,4.4c-.1,0,0-.7-.4-1.2a1.7,1.7,0,0,0,.1-.7H12c.3.3,1.5-.1,1.7,0h.2v1.4h-.1c-.1.1-1.1-.3-1.1-.1m2.7.4H15v-.6h.2a.9.9,0,0,0,.4.7Zm1.5-.4-.8-.5c-.1-.1,0-.2,0-.4s-.1-.2-.3-.1v-.3H16c0,.2.2.4.7.7Zm1,2h-.3v-.3h.3Zm0-2.6h-.2c-.2,0-.3,0-.3-.2l-.3.2-.2-.5v-.3h.2q0,.3.9.6Zm-1.3-3h2.3c.2,0,.3.1.4.3h-.6c-.2,0-.3.2-.2.5l-1.3,1a8.9,8.9,0,0,0-.7-1.9m2.7,2.4a.2.2,0,0,1-.2-.2l-.3.2v-.7c-.1,0-.1-.1-.1-.2l-.2.2c-.2.1-.3,0-.3-.2a2.5,2.5,0,0,0,.8-.5,2.2,2.2,0,0,0,.3.9c-.1,0-.1.2,0,.5m.3-1.3h-.2v-.5h.3v.3m.4-.5h-.2c-.1-.2,0-.3.2-.4Zm1.4-1h-.1v-.3h.2Zm.4.1h-.1V11h0c.2,0,.3,0,.4.2v.2h-.4"/>
</svg>