<?xml version="1.0" encoding="utf-8"?>
<svg xmlns="http://www.w3.org/2000/svg" viewBox="0 0 150 150" fill="none">
  <path d="M110.89 102.06L110.18 97.95L110.83 98.31L107.4 88.49L135.19 75.12L107.41 61.72L117.6 32.62L88.49 42.79L82.5 30.33L82.06 30.52L80.36 31.66L79.93 29.2L81.72 29.74L82.08 29.45L75.13 15L61.73 42.78L32.63 32.59L42.8 61.7L39.43 63.32C39.76 63.54 39.98 63.93 40.08 64.49C38.99 64.68 37.44 65.51 35.44 66.99C35.34 66.41 35.23 65.88 35.11 65.4L33.59 66.13L34 68.51L32.76 68.14L32.21 67.98C32.11 67.43 32.21 67.01 32.44 66.69L15 75.06L42.78 88.46L32.59 117.56L61.7 107.39L75.07 135.18L82.26 120.28C82.06 120.06 81.89 119.78 81.77 119.4L81.63 118.58C82.12 118.73 82.55 118.83 82.93 118.9L88.47 107.41L98.91 111.07C98.5 109.01 97.99 107.61 97.37 106.96C97.92 106.86 98.05 106 97.76 104.35C98.31 104.25 98.63 104.48 98.72 105.03L100.22 103.92L100.65 106.38L100.11 108.17C100.66 108.07 100.98 108.3 101.07 108.85C101.62 108.75 101.84 108.43 101.75 107.89C102.85 107.7 103.49 108.15 103.68 109.25C102.7 109.42 101.34 110.13 99.64 111.33L102.66 112.39L103.37 112.27C103.33 112.37 103.31 112.5 103.28 112.61L117.57 117.61L112.51 103.11C112.04 102.78 111.51 102.44 110.91 102.07L110.89 102.06ZM30.17 70.86L29.88 69.22L31.52 68.93C31.69 69.89 31.24 70.53 30.16 70.86H30.17ZM39.63 71.75L35.52 72.46C34.56 72.63 33.92 72.17 33.59 71.1L33.45 70.28C34.68 70.07 35.83 70.15 36.88 70.53C37.98 70.34 38.38 69.42 38.09 67.78L39.73 67.49C39.35 68.54 39.31 69.96 39.62 71.74L39.63 71.75ZM97.74 62.27C98.86 62.21 99.5 62.67 99.67 63.63L98.21 64.94C97.12 65.13 96.46 64.61 96.25 63.38L97.75 62.27H97.74ZM81.2 35.11L81.58 35.04L81.72 35.86L81.49 35.9L79.88 36.18L79.74 35.36L81.21 35.1L81.2 35.11ZM54.63 50.95L56.42 51.49L56.99 54.78L56.17 54.92C55.93 53.55 55.15 52.28 53.81 51.1L54.63 50.96V50.95ZM42.91 41.99L43.2 43.63L41.56 43.92L41.27 42.28L42.91 41.99ZM46.2 60.87C46.01 59.77 44.4 58.64 41.38 57.48L41.24 56.66L42.06 56.52C43.16 56.33 43.8 56.78 43.99 57.88L45.49 56.77C45.58 57.32 46 58.09 46.74 59.09L47.03 60.73L46.21 60.87H46.2ZM46.56 53.2L51.24 55.77C51.33 56.32 51.21 57.18 50.85 58.38C50.94 58.93 51.54 59.11 52.64 58.92L52.93 60.56L51.29 60.85C51.15 60.03 49.81 58.85 47.29 57.32L46.58 53.21L46.56 53.2ZM88.39 80.61L92.58 92.6L80.6 88.4L75.08 99.84L69.57 88.4L57.58 92.59L61.78 80.61L50.34 75.09L61.78 69.58L57.59 57.59L69.57 61.79L70.98 58.87C70.47 58.3 70.04 57.86 69.67 57.58C69.27 57.27 68.94 57.14 68.7 57.18L68.41 55.54C68.58 55.51 68.73 55.46 68.87 55.41C69.62 55.11 69.91 54.45 69.73 53.41C70.25 53.32 71.19 54.05 72.56 55.59L75.08 50.37L80.59 61.81L92.58 57.62L88.38 69.6L99.82 75.12L88.38 80.63L88.39 80.61ZM106.54 86.75L106.83 88.39L105.19 88.68L104.9 87.04L106.54 86.75ZM109.82 105.63C109.63 104.53 108.02 103.4 105 102.24L104.86 101.42L105.68 101.28C106.78 101.09 107.42 101.54 107.61 102.64L109.11 101.53C109.2 102.08 109.62 102.85 110.36 103.85L110.65 105.49L109.83 105.63H109.82Z" fill="#85827d"/>
</svg>