<?xml version="1.0" encoding="utf-8"?>
<svg xmlns="http://www.w3.org/2000/svg" width="40" height="40" viewBox="0 0 40 40" fill="none">
<path d="M6.55385 11.7381C9.97876 9.54465 8.71777 10.3545 11.991 8.81443C15.2641 7.27441 17.2641 6.86047 17.5762 6.77181C17.8883 6.68315 18.5126 6.50583 18.5213 7.72406C18.53 8.94229 23.5397 20.6419 24.2529 21.9652C24.966 23.2885 27.0167 25.7578 24.7515 26.096C22.4863 26.4342 20.7985 26.7595 20.2544 27.2192L18.4828 28.7966C17.9387 29.2563 16.7704 29.8933 15.3353 26.0285C13.9003 22.1637 8.60451 14.2074 7.34725 13.3438C6.08998 12.4802 6.55385 11.7381 6.55385 11.7381Z" fill="#85827d"/>
<path d="M22.0167 9.93558C25.6823 8.58929 25.9316 8.27281 28.0364 7.36981C30.1412 6.4668 31.7821 6.3059 30.8631 9.00834C29.944 11.7108 32.1804 14.9722 32.8936 16.2955C33.6068 17.6188 34.8561 23.0734 35.8814 24.308C36.9067 25.5427 37.388 27.237 34.7304 27.3815C32.0728 27.526 30.6725 28.5341 28.5677 29.4371C26.4629 30.3401 25.8299 29.2992 26.6775 27.5326C27.525 25.766 25.3768 20.5778 24.1108 18.496C22.8449 16.4142 22.0428 13.5903 21.3296 12.267C20.6164 10.9437 22.0167 9.93558 22.0167 9.93558Z" fill="#85827d"/>
<path d="M22.8656 27.4373C25.3072 26.3899 26.3904 26.0822 25.6794 27.7002C24.9653 29.319 25.4305 30.9569 23.3308 29.0752C21.2312 27.1936 22.8656 27.4373 22.8656 27.4373Z" fill="#85827d"/>
<path d="M6.16135 14.2405C7.50439 16.0552 8.96891 17.3084 12.0557 23.5511C13.1858 25.8365 15.7917 29.663 19.3435 35.9074C18.5941 36.1243 18.5744 35.6758 17.039 36.1201C16.0076 34.8906 5.49576 15.8944 4.72698 15.0746C4.10633 14.4128 5.14302 13.7791 5.14302 13.7791C5.14302 13.7791 5.82325 13.7837 6.16135 14.2405Z" fill="#85827d"/>
<path d="M5.00619 12.5469C5.13387 13.3281 4.77303 14.128 3.6908 13.9728C2.99939 13.8026 2.10507 13.4437 2.2705 12.6513C2.63509 11.9496 2.51116 11.2664 3.58589 11.2254C4.59956 11.1867 4.78456 11.8675 5.00619 12.5469Z" fill="#85827d"/>
</svg>