<?xml version="1.0" encoding="utf-8"?>
<svg xmlns="http://www.w3.org/2000/svg" xmlns:xlink="http://www.w3.org/1999/xlink" version="1.1" x="0px" y="0px" viewBox="0 0 239 239" style="enable-background:new 0 0 239 239;">
<path fill="#85827d" d="M47.29,36.75c-0.4-0.78-0.8-1.56-1.2-2.34c-0.26-0.51-2.86-4.15-3.12-4.66c-0.49-0.98-1-1.95-1.44-2.95&#xA;	c-0.24-0.55-0.41-1.15-0.52-1.75c-0.14-0.76-0.17-1.55-0.29-2.32c-0.17-1.1,0.21-1.59,1.31-1.66c0.25-0.01,0.52-0.03,0.77,0.02&#xA;	c5.06,1.1,10.18,1.96,14.98,4.05c1.85,0.81,3.76,1.48,5.55,2.39c1.93,0.99,3.78,2.15,5.62,3.3c1.73,1.09,3.51,2.15,5.08,3.45&#xA;	c2.25,1.86,4.47,3.79,6.44,5.94c1.97,2.15,3.66,4.58,5.4,6.94c0.51,0.68,0.82,1.53,1.16,2.33c0.78,1.84,1.76,3.56,2.36,5.51&#xA;	c0.63,2.06,1.13,4.12,1.43,6.22c0.32,2.22,3.2,8.94,3.24,11.18c0.03,1.49-0.51,2.88-1.22,4.25c-1.01,1.96-2.62,2.96-4.52,3.7&#xA;	c-1.01,0.39-1.99,0.86-2.98,1.3c-0.91,0.4-1.25,1.08-0.93,2.06c1,3.04,3.16,4.82,6.15,5.54c1.41,0.34,2.88,0.38,4.33,0.58&#xA;	c0.8,0.11,1.3-0.17,1.43-1.02c0.25-1.71,5.24,2.46,5.98,0.84c0.29-0.63-0.15-1.64-0.38-2.44c-0.27-0.91-0.78-1.76-1-2.68&#xA;	c-0.23-0.96,0.4-1.36,1.34-1.18c1.92,0.35,1.03-3.94,2.5-5.85c1.42-1.85,3.18-3.45,4.82-5.13c1.24-1.28,1.31-1.63,0.41-3.14&#xA;	c-0.41-0.69-0.19-1.18,0.65-1.67c1.1-0.64,2.29-1.21,3.23-2.05c3.43-3.07,4.76-7,4.42-11.54c-0.01-0.17-0.05-0.33-0.04-0.5&#xA;	c0.14-4.2-3.91-6.93-7.94-6.18c-1.15,0.21-2.29,0.67-3.32,1.21c-2.09,1.09-4.27,1.83-6.61,2.03c-2.23,0.19-5.12-2.03-5.44-4.23&#xA;	c-0.06-0.44,0.17-1.07,0.5-1.38c0.2-0.19,0.91-0.08,1.24,0.13c0.68,0.44,1.31,0.57,2.07,0.31c0.27-0.09,0.6-0.1,0.88-0.05&#xA;	c0.99,0.19,1.84-0.08,2.62-0.66c0.21-0.15,0.46-0.27,0.69-0.39c1.33-0.71,2.7-1.34,3.95-2.17c0.47-0.31,1-1.2,0.86-1.58&#xA;	c-0.21-0.56-0.94-1.13-1.55-1.3c-2.22-0.61-4.48-0.91-6.77-0.25c-0.5,0.14-1.06,0.08-1.59,0.08c-1.38,0.01-1.74-0.42-1.62-1.83&#xA;	c0.04-0.52-0.07-1.07,0.03-1.58c0.14-0.75,0.4-1.49,0.62-2.23c0.03-0.09,0.15-0.16,0.16-0.25c0.39-1.83,1.86-1.94,3.31-2.08&#xA;	c0.83-0.08,1.65-0.17,2.48-0.2c0.99-0.03,1.66-0.5,1.95-1.42c0.3-0.97,0.85-1.69,1.72-2.2c0.89-0.52,1.04-1.44,0.99-2.36&#xA;	c-0.06-1.03-0.14-2.07-0.39-3.06c-0.18-0.71-0.51-1.54-1.06-1.95c-1.13-0.85-1.19-1.88-1.06-3.09c0.17-1.67-0.6-3.04-1.49-4.35&#xA;	c-0.63-0.93-1.23-1.88-1.89-2.77c-0.47-0.63-1.09-1.15-1.54-1.8c-0.29-0.41-0.39-0.96-0.57-1.45c0.44-0.15,0.9-0.47,1.31-0.42&#xA;	c1.81,0.24,3.53,0.56,4.84,2.14c1.21,1.48,1.46,1.39,3.25,0.65c0.46-0.19,0.95-0.31,1.39-0.54c0.55-0.28,1.15-0.55,1.55-0.99&#xA;	c1.11-1.22,2.11-2.55,3.19-3.8c0.95-1.11,1.92-2.19,2.92-3.25c0.55-0.58,1.38-0.43,1.88,0.2c0.59,0.75,1.27,1.43,1.89,2.15&#xA;	c0.55,0.65,1.07,1.33,1.61,1.99c0.23,0.28,0.47,0.54,0.74,0.78c0.54,0.49,1.04,1.04,1.65,1.4c1.38,0.83,2.78,1.62,4.24,2.28&#xA;	c0.32,0.15,0.96-0.27,1.39-0.53c1.35-0.82,2.63-1.76,4.02-2.5c0.54-0.29,1.29-0.29,1.94-0.25c0.81,0.06,1.08,0.76,0.53,1.35&#xA;	c-2.07,2.22-3.21,5-4.65,7.59c-0.96,1.74-0.42,4.19-2.53,5.4c-0.3,1.43-0.68,2.84-0.87,4.28c-0.15,1.11,0.51,1.65,1.65,1.55&#xA;	c0.76-0.07,1.51-0.27,2.27-0.33c1.15-0.09,1.59,0.38,1.5,1.53c-0.05,0.63-0.14,1.25-0.25,1.87c-0.25,1.51,0.43,2.34,1.96,2.4&#xA;	c1.72,0.06,2.09,0.69,1.39,2.3c-0.37,0.85-0.88,1.69-1.01,2.59c-0.16,1.15-0.34,2.5,0.09,3.5c1.06,2.43,1.1,4.85,0.79,7.4&#xA;	c-0.51,4.18-0.98,8.37-1.26,12.57c-0.1,1.48,0.4,3,0.62,4.5c0.13,0.89,0.28,1.77,0.37,2.66c0.08,0.82-0.3,1.3-1.17,1.17&#xA;	c-0.96-0.14-1.41,0.33-1.4,1.21c0.04,2.58-0.15,5.17,0.89,7.66c0.67,1.59,2.07,2.85,3.8,2.97c1.44,0.1,1.95,1.09,1.16,2.37&#xA;	c-0.47,0.76-1.03,1.46-1.6,2.14c-0.76,0.9-0.8,1.66-0.16,2.61c0.73,1.07,1.33,2.19,1.11,3.59c-0.12,0.8,0.47,1.33,1.4,1.25&#xA;	c0.69-0.06,1.37-0.26,2.05-0.41c1.13-0.26,6.44-3.94,7.54-4.29c2.3-0.74,4.14-2.13,5.09-4.4c0.63-1.51-0.37-3.06-1.96-3.37&#xA;	c-0.19-0.04-0.42-0.05-0.57-0.16c-2.13-1.49-4.46-2.8-5.82-5.12c-1.24-2.12-1.71-4.46-1.78-6.95c-0.16-5.24,1.11-10.12,3.32-14.81&#xA;	c0.9-1.91,1.96-3.69,3.17-5.45c1.38-2.01,3.1-3.67,4.62-5.51c0.71-0.85,1.67-1.49,2.51-2.23c0.79-0.7,1.52-1.46,2.36-2.09&#xA;	c1.89-1.43,3.82-2.81,5.76-4.17c1.26-0.89,2.56-1.72,3.84-2.57c0.14-0.09,0.27-0.19,0.42-0.26c3.03-1.33,6.01-2.82,9.12-3.93&#xA;	c4.33-1.55,8.68-3.12,13.34-3.45c0.92-0.07,1.81-0.4,2.73-0.51c0.49-0.06,1.19-0.06,1.45,0.23c0.25,0.27,0.19,0.99,0.06,1.45&#xA;	c-0.44,1.58-0.9,3.17-1.48,4.7c-0.46,1.22-1.1,2.37-1.65,3.56c-0.43,0.93-2.43,3.83-2.82,4.78c-0.08,0.2-0.02,0.57,0.12,0.71&#xA;	c0.14,0.14,0.52,0.19,0.71,0.1c0.69-0.32,1.34-0.71,2-1.09c2-1.15,7.57-3.27,9.57-4.43c0.31-0.18,0.95-0.47,1.27-0.62&#xA;	c0.46-0.22,0.96-0.46,1.46-0.49c0.73-0.04,0.93,0.52,0.81,1.2c-0.19,1.1-0.3,1.32-0.52,2.14c-0.22,0.8-0.66,2.03-1.28,3.03&#xA;	c-1.11,1.79-0.86,1.39-3.15,5.38c-0.44,0.77-1.62,2.42-1.91,3.27c-0.13,0.38-1.77,5.81-1.79,5.38c0.06,1.42,7.99,0.36,9.23,0.37&#xA;	c2.23,0.03,4.45,0.01,6.68,0.03c0.69,0.01,1.4,0.03,2.08,0.16c1.26,0.24,2.03,0.94,1.39,2.07c-0.43,0.75-0.72,1.36-1.45,2.75&#xA;	c-0.06,0.12-0.61,0.91-0.69,1.01c-0.81,1.02-1.62,2.13-2.94,3.54c-1.01,1.07-5.12,7.06-4.95,7.53c0.32,0.88,7.03,2.09,7.72,2.17&#xA;	c2.27,0.26,7.81,1.01,12.89,1.17c3.23,0.1,3.62,0.4,2.21,3.43c-0.04,0.09-4.25,2.77-5.2,3.35c-1.09,0.67-7.63,4.85-7.35,4.62&#xA;	c-2.98,2.35-8.78,5.79-9.14,5.99c0.23,0.33,6.76,2.26,7.12,2.34c2.66,0.6,4.22,1.57,5.67,1.97c1.97,0.54,3.08,0.97,6.25,1.97&#xA;	c1.31,0.41,3.42,1.3,4.63,1.97c2.31,1.27,3.4,1.91,4.05,2.78c0.68,0.91-3.03,2.59-4.23,2.85c-2.31,0.49-7.55,2.19-9.88,2.47&#xA;	c-3.2,0.39-4.29,1.01-10.98,2.68c-0.36,0.09-0.8,0.29-1.2,0.45c0.24,0.31,0.42,0.74,0.74,0.92c3.11,1.75,6.26,3.44,9.63,4.65&#xA;	c1.99,0.71,3.98,1.42,5.98,2.1c0.5,0.17,2.99,0.43,3.31,1.39c0.14,0.42-1.38,1.7-1.82,1.84c-0.87,0.29-1.8,0.47-2.71,0.6&#xA;	c-2.39,0.33-4.79,0.79-7.2,0.84c-2.6,0.05-5.3-1.05-7.85-1.86c-1.25-0.4-2.57-0.6-3.87-0.86c-1.1-0.22-1.47,0.14-1.17,1.22&#xA;	c0.15,0.56,0.49,1.08,0.76,1.6c1.46,2.75,2.7,5.59,3.62,8.56c0.43,1.39,0.96,2.74,1.35,4.14c0.51,1.82,1.12,3.64,1.34,5.5&#xA;	c0.35,2.92,0.45,5.88,0.58,8.83c0.04,0.91-0.46,1.25-1.38,1.03c-2.18-0.51-4.31-1.08-6.39-2.07c-2.41-1.15-4.51-2.75-6.78-4.08&#xA;	c-1.32-0.77-2.3-2.13-3.5-3.14c-0.28-0.23-10.3-6.09-10.6-6.22c-1.61-0.75-0.91,4.14-0.81,6.48c0.11,2.66,0.03,4.17,0.15,8.67&#xA;	c0.12,4.37-0.03,5.78-0.95,10.06c-0.48,2.23-0.97,4.48-2.22,6.44c-0.65,1.03-1.15,1.14-2.13,0.43c-0.67-0.48-1.3-1.05-1.81-1.69&#xA;	c-1.7-2.15-3.2-4.35-4.79-6.69c-2.35-3.46-6.28-7.16-7.78-9.01c-1.03-1.27-7.96-9.96-9.83-10.59c-2.05-0.69-3.07-2.7-3.94-4.71&#xA;	c-1.01-2.33-1.2-4.81-1.67-7.23c-0.46-2.39-0.48-4.87-0.58-7.32c-0.07-1.65-0.5-2.13-2.12-1.86c-0.79,0.13-1.55,0.42-2.33,0.53&#xA;	c-1.1,0.16-6.39,3.64-7.49,3.8c-0.52,0.08-1.01,0.35-1.51,0.53c0.22,0.44,0.34,1.02,0.69,1.28c1.56,1.16,2.53,2.71,3.48,4.39&#xA;	c1.87,3.32,3.23,6.88,5.12,10.17c0.57,1,1.32,1.9,2.05,2.81c1.34,1.68,2.71,3.34,4.1,4.97c0.59,0.69,0.96,1.35,0.44,2.23&#xA;	c-0.53,0.9-0.13,1.39,0.58,2.08c0.81,0.79,1.6,1.89,1.8,2.97c0.31,1.64,1.51,2.2,2.63,2.85c1.21,0.7,1.39,1.04,0.55,2.21&#xA;	c-0.61,0.85-0.57,1.47,0.23,2.18c0.34,0.3,0.84,0.44,1.14,0.77c0.87,0.94,1.74,1.89,2.46,2.94c0.39,0.57-0.01,1.22-0.65,1.44&#xA;	c-1.37,0.48-2.75,0.94-4.16,1.26c-0.64,0.15-1.41,0.15-1.51,0.84c-0.07,0.52,0.24,1.21,0.59,1.66c1.01,1.32,2.12,2.54,3.18,3.82&#xA;	c0.16,0.19,0.32,0.49,0.29,0.72c-0.22,2.1,1.31,2.85,2.75,3.7c0.94,0.55,1.86,1.12,2.77,1.71c0.73,0.47,0.99,1.07,0.6,1.96&#xA;	c-0.16,0.35-0.15,1,0.08,1.26c1.11,1.3,2.22,2.62,3.5,3.75c2.09,1.86,4.25,3.68,6.5,5.34c1.01,0.75,2.16,1.19,3.68,0.86&#xA;	c2.87-0.62,5.86-0.72,8.76-1.22c0.91-0.16,1.91-0.74,2.53-1.43c1.71-1.9,5.47-2.5,7.79-0.46c1.06,0.94,2.23,1.81,3.1,2.9&#xA;	c0.69,0.88,1.1,2.02,1.47,3.1c0.27,0.77-0.43,1.5-1.31,1.22c-2.38-0.75-4.5,0.2-6.7,0.75c-1.01,0.25-1.92,0.14-2.82-0.52&#xA;	c-2.14-1.55-5.61-1.14-7.51,0.19c0.79,0.71,1.74,0.94,2.66,0.76c1.04-0.2,1.88,0.12,2.76,0.53c1.44,0.65,2.88,1.28,4.36,1.83&#xA;	c0.44,0.16,0.98,0.1,1.47,0.07c1.51-0.12,2.82,0.35,3.63,1.62c0.78,1.23,0.97,2.62,0.11,3.96c-0.66,1.03-0.79,2.2-0.4,3.26&#xA;	c0.58,1.57-0.1,2.57-1.19,3.46c-0.66,0.54-1.42,0.98-2.17,1.4c-0.76,0.43-1.32,0.19-1.45-0.67c-0.09-0.57-0.01-1.19,0.11-1.76&#xA;	c0.27-1.29-0.13-2.09-1.39-2.39c-1.29-0.3-2.07-1.15-2.61-2.26c-0.89-1.83-2.28-2.91-4.3-3.24c-0.81-0.13-1.56-0.55-2.37-0.72&#xA;	c-1.13-0.23-1.76,0.31-1.46,1.42c0.2,0.78,0.68,1.63,1.3,2.12c0.87,0.68,1.95,1.17,3.01,1.51c1.24,0.4,2.15,1.16,2.94,2.12&#xA;	c0.23,0.27,0.43,0.62,0.49,0.96c0.5,3.16-0.24,6.02-2.68,8.13c-1.01,0.87-2.47,1.24-3.78,1.72c-0.35,0.13-0.86-0.16-1.3-0.26&#xA;	c0.1-0.33,0.15-0.68,0.29-0.99c0.6-1.23,0.23-2.24-1.03-2.69c-1.05-0.38-1.59-1.19-1.75-2.23c-0.12-0.75-0.2-1.54-0.07-2.28&#xA;	c0.38-2.26-0.55-4.1-1.73-5.86c-1-1.48-2.11-2.89-3.14-4.35c-0.68-0.96-1.89-1.24-3-0.69c-0.77,0.37-1.6,0.63-2.37,0.99&#xA;	c-0.56,0.26-1.08,0.61-1.63,0.91c-0.37,0.21-0.73,0.47-1.12,0.58c-0.7,0.19-1.11,0.57-1.18,1.29c-0.07,0.79,0.06,1.46,0.9,1.8&#xA;	c0.21,0.09,0.43,0.19,0.61,0.34c0.63,0.49,0.57,1.45-0.19,1.67c-0.96,0.28-1.98,0.45-2.98,0.45c-2.83-0.01-4.23-2.04-5.59-4.12&#xA;	c-0.72-1.1-1.2-2.24-1.47-3.54c-0.35-1.67,1.01-4.06,3.01-4.19c1.08-0.07,2.16-0.2,3.24-0.22c1.39-0.02,1.82-0.66,1.18-1.89&#xA;	c-0.94-1.78-1.84-3.59-2.88-5.31c-1.04-1.72-2.09-3.48-3.4-5c-2.62-3.06-5.41-5.98-8.14-8.95c-0.73-0.79-1.48-1.57-2.21-2.36&#xA;	c-1.13-1.23-2.4-1.2-3.75-0.21c-1.27,0.92-2.68,1.68-4.11,2.33c-1.02,0.46-1.72-0.13-1.78-1.26c-0.06-1.39-0.13-2.78-0.16-4.17&#xA;	c-0.03-1.5-0.25-1.82-1.76-2.11c-0.81-0.16-0.9-0.8-1.05-1.41c-0.4-1.6-0.61-3.27-1.2-4.8c-1.02-2.68-2.24-5.29-3.42-7.91&#xA;	c-0.46-1.02-0.99-2.03-1.59-2.97c-0.29-0.46-0.79-1.02-1.24-1.07c-0.81-0.09-0.96,0.79-1,1.36c-0.14,2.18-0.3,4.37-0.21,6.55&#xA;	c0.07,1.58,0.44,3.16,0.81,4.7c0.23,0.99,0.69,1.92,1.06,2.87c0.17,0.43,0.4,0.84,0.58,1.27c0.96,2.38,2.06,4.69,3.84,6.6&#xA;	c0.75,0.8,0.35,1.95-0.71,2.28c-0.6,0.19-1.55,0.34-1.68,0.73c-0.26,0.79-0.13,1.73-0.06,2.6c0.17,2.07,1.37,3.77,2.14,5.62&#xA;	c0.16,0.37,0.62,0.78,1.01,0.86c1.08,0.23,2.2,0.29,3.3,0.41c0.13,0.01,0.26-0.04,0.39-0.06c2.21-0.25,2.68,0.14,2.69,2.36&#xA;	c0.01,1.19,0.01,2.4-0.17,3.57c-0.08,0.48-0.57,1.14-1.01,1.28c-1.8,0.58-3.56,1.43-5.56,1.15c-0.94-0.13-1.48,0.37-1.24,1.3&#xA;	c0.25,0.99,0.65,2.08,1.32,2.8c1.29,1.38,2.65,2.71,4.8,2.84c1.68,0.1,3.32,0.38,5.03,0.01c1.76-0.37,3.06-1.29,3.98-2.73&#xA;	c0.34-0.55,0.4-1.32,0.46-1.99c0.13-1.52,0.96-2.08,2.27-1.31c1.19,0.7,2.31,1.54,3.37,2.44c1.51,1.28,1.58,3.05,1.33,4.84&#xA;	c-0.19,1.35-0.88,2.48-1.5,3.7c-1.2,2.38-3.17,3.76-5.34,4.81c-3.01,1.46-6.2,2.39-9.6,1.05c-0.49-0.19-1.37-0.12-1.7,0.2&#xA;	c-0.59,0.58-0.07,1.29,0.42,1.72c1.9,1.64,4.13,2.49,6.64,2.47c1.57-0.01,3.15-0.28,4.44-1.26c0.66-0.5,1.14-1.23,1.72-1.85&#xA;	c0.48-0.51,1.02-1.47,1.44-1.42c0.79,0.09,1.74,0.6,2.23,1.23c2.03,2.62,2.01,5.51,0.79,8.48c-0.29,0.7-0.37,1.53-0.78,2.13&#xA;	c-0.83,1.21-1.81,2.33-2.77,3.45c-0.39,0.45-0.89,0.79-1.35,1.17c-0.2,0.16-0.41,0.36-0.65,0.42c-5.11,1.34-9.92,0.77-14.34-2.29&#xA;	c-0.84-0.58-1.76-1.09-2.53-1.76c-0.89-0.77-1.64-1.71-2.51-2.51c-0.27-0.25-0.9-0.5-1.1-0.36c-0.31,0.21-0.57,0.78-0.52,1.16&#xA;	c0.44,3.49-0.45,6.77-1.46,10.05c-0.56,1.83-1.4,3.41-2.87,4.67c-2.71,2.34-5.28,2.19-8.02,0.17c-0.58-0.43-0.99-1.17-1.32-1.84&#xA;	c-0.65-1.33-1.34-2.68-1.74-4.1c-0.81-2.83-1.4-5.72-1.32-8.71c0.01-0.43-0.24-1.03-0.56-1.24c-0.22-0.14-0.92,0.16-1.19,0.46&#xA;	c-1.83,2.05-4.16,3.44-6.58,4.54c-2.83,1.29-5.81,2.17-9.05,2.01c-2.49-0.12-4.66-0.86-6.63-2.32c-2.85-2.11-3.45-5.2-3.64-8.43&#xA;	c-0.07-1.11,0-2.28,0.26-3.36c0.3-1.27,0.81-2.49,2.18-3.13c1.3-0.6,2.74-0.29,3.44,0.97c0.32,0.57,0.53,1.22,0.67,1.86&#xA;	c0.17,0.82,0.6,1.33,1.39,1.51c2.18,0.5,4.47,0.5,6.51-0.15c1.72-0.55,3.65-1.32,4.57-3.22c0.14-0.3,0.28-0.76,0.15-0.97&#xA;	c-0.13-0.21-0.66-0.37-0.93-0.28c-1.88,0.61-3.8,0.55-5.72,0.48c-2.06-0.08-4.03-0.55-5.85-1.54c-0.95-0.52-1.89-1.06-2.75-1.72&#xA;	c-1.37-1.06-2.3-2.57-2.68-4.17c-0.37-1.54-0.33-3.25-0.13-4.84c0.29-2.21,1.37-4,3.7-4.72c0.16-0.05,0.3-0.14,0.44-0.23&#xA;	c1.19-0.73,1.67-0.52,2.07,0.87c0.28,0.99,0.52,1.99,0.87,2.95c0.64,1.75,1.81,2.76,3.76,3.11c2.11,0.37,4.13,0.3,6.07-0.46&#xA;	c1.74-0.68,3.51-1.46,4.1-3.56c0.16-0.56,0.62-1.03,0.83-1.58c0.42-1.13-0.1-1.82-1.29-1.74c-2.36,0.16-4.21-0.99-5.95-2.35&#xA;	c-0.31-0.24-0.57-0.71-0.61-1.09c-0.12-1.15-0.18-2.32-0.16-3.48c0.02-0.84,0.51-1.35,1.41-1.33c0.63,0.01,1.26,0.06,1.89,0.06&#xA;	c2.44-0.01,4.65-1.62,5.44-3.94c0.44-1.29,0.87-2.57,1.28-3.87c0.48-1.51-0.11-2.34-1.62-2.58c-0.48-0.07-1.22-0.43-1.3-0.78&#xA;	c-0.12-0.51,0.14-1.19,0.44-1.69c0.92-1.55,2.13-2.96,2.86-4.59c1.07-2.41,1.96-4.93,2.68-7.47c0.87-3.05,0.97-6.22,0.97-9.38&#xA;	c0-0.49-0.32-1.09-0.69-1.43c-0.15-0.14-0.88,0.21-1.24,0.47c-1.73,1.27-2.68,3.06-3.22,5.1c-0.66,2.47-1.22,4.96-2.03,7.38&#xA;	c-0.49,1.45-1.35,2.79-2.13,4.13c-0.22,0.37-0.77,0.69-1.2,0.75c-1.03,0.14-1.34,0.73-1.35,1.64c-0.01,1.36,0,2.73-0.02,4.09&#xA;	c-0.03,1.79-1.21,2.5-2.71,1.58c-1.44-0.88-2.82-1.84-4.21-2.78c-0.64-0.43-1.66-0.29-2.51,0.56c-1.72,1.7-3.39,3.46-5.08,5.19&#xA;	c-2.83,2.9-5.28,6.11-7.57,9.43c-1.26,1.82-2.42,3.71-3.64,5.56c-0.25,0.38-0.68,0.67-0.85,1.08c-0.21,0.51-0.48,1.2-0.29,1.62&#xA;	c0.19,0.41,0.9,0.76,1.41,0.81c1.47,0.14,3-0.08,4.44,0.19c2.78,0.52,3.7,3.33,1.88,5.5c-0.74,0.88-1.64,1.63-2.42,2.48&#xA;	c-0.47,0.51-0.87,1.07-1.25,1.65c-0.23,0.36-0.33,0.81-0.55,1.17c-1.12,1.77-1.47,2.43-3.62,1.43c-0.62-0.29-1.35-0.37-1.99-0.63&#xA;	c-0.3-0.12-0.67-0.39-0.75-0.67c-0.06-0.21,0.21-0.62,0.45-0.81c2-1.67,2.04-2.03-0.03-3.68c-0.83-0.66-1.83-1.13-2.78-1.62&#xA;	c-0.76-0.4-1.57-0.7-2.35-1.06c-0.85-0.4-1.76-0.25-2.35,0.44c-1.11,1.29-2.27,2.55-3.33,3.88c-0.46,0.58-0.71,1.32-1.08,1.97&#xA;	c-0.98,1.72-1.06,3.51-0.74,5.45c0.19,1.15-0.33,2.28-1.49,2.94c-0.4,0.23-0.77,0.53-1.12,0.83c-1.05,0.89-1.07,1.87-0.18,2.94&#xA;	c0.22,0.27,0.21,0.73,0.31,1.11c-0.36,0.05-0.78,0.24-1.08,0.12c-1.17-0.45-2.31-0.99-3.46-1.5c-0.18-0.08-0.39-0.17-0.49-0.32&#xA;	c-1.44-2.06-2.72-4.18-2.77-6.81c-0.04-2.47,0.67-3.62,3-4.46c1.53-0.55,3.02-1.11,4.31-2.18c0.8-0.66,0.9-1.44,0.77-2.31&#xA;	c-0.09-0.66-0.64-0.85-1.22-0.65c-1.82,0.62-3.69,1.13-5.4,1.98c-0.97,0.48-1.66,1.55-2.48,2.35c-0.42,0.41-0.79,0.93-1.3,1.2&#xA;	c-2.06,1.07-2.47,1.79-2.11,4c0.2,1.26-0.29,1.56-1.5,1.29c-1.76-0.4-2.42-1.45-2.56-3.16c-0.17-2.12-0.57-4.21-0.8-6.33&#xA;	c-0.25-2.33,0.96-3.68,3.29-3.71c1.82-0.02,3.47-0.47,5.17-1.16c1.75-0.7,3.71-0.87,5.57-1.32c0.47-0.11,0.89-0.4,1.34-0.61&#xA;	c-0.42-0.26-0.81-0.64-1.27-0.75c-1.55-0.35-3.13-0.62-4.7-0.88c-0.34-0.06-0.79-0.05-1.05,0.12c-2.02,1.4-4.16,1.8-6.5,0.92&#xA;	c-0.43-0.16-0.92-0.15-1.37-0.25c-0.88-0.19-1.62-0.03-2.27,0.65c-0.27,0.28-0.81,0.58-1.08,0.48c-0.28-0.11-0.47-0.67-0.53-1.06&#xA;	c-0.07-0.48-0.06-1.03,0.11-1.48c0.87-2.4,1.74-4.78,3.99-6.36c1.64-1.16,2.42-1.32,4.16-0.36c1.71,0.94,3.38,1.94,5.15,2.75&#xA;	c0.72,0.33,1.65,0.24,2.48,0.3c1.37,0.1,2.76,0.04,4.11,0.26c1.4,0.23,2.76,0.73,4.15,1.05c1.27,0.29,3.53-0.84,4.34-1.91&#xA;	c0.59-0.78,1.34-1.48,2.13-2.07c1.43-1.08,2.49-2.41,3.48-3.89c0.57-0.86,1.54-1.53,2.44-2.09c0.69-0.43,1.15-0.8,1.06-1.69&#xA;	c-0.1-0.97,0.28-1.71,1.15-2.25c1.3-0.81,2.58-1.67,3.8-2.59c0.34-0.26,0.68-0.86,0.62-1.24c-0.21-1.38,0.53-2.25,1.36-3.16&#xA;	c0.82-0.9,1.65-1.81,2.35-2.8c0.26-0.36,0.32-1.07,0.14-1.47c-0.15-0.34-0.8-0.66-1.2-0.64c-1.6,0.09-3-0.46-4.38-1.15&#xA;	c-0.94-0.47-1.08-1.17-0.29-1.88c0.89-0.79,1.83-1.54,2.83-2.18c1.2-0.77,1.69-1.53,0.55-2.78c-0.41-0.45-0.42-0.95,0.03-1.32&#xA;	c0.97-0.79,1.95-1.59,3.02-2.22c0.95-0.56,1.45-1.19,1.22-2.32c-0.25-1.27,0-2.25,1.38-2.8c0.81-0.32,0.85-1.05,0.36-2.17&#xA;	c-0.49-1.1-0.38-1.67,0.56-2.39c1.74-1.35,3-3.05,3.82-5.09c1.34-3.34,2.57-6.73,4.09-9.98c1.27-2.72,2.72-5.42,5.57-6.92&#xA;	c0.55-0.29,1.2-0.38,1.75-0.67c0.32-0.17,0.52-0.56,0.77-0.86c-0.32-0.27-0.6-0.68-0.96-0.78c-0.49-0.14-1.06-0.1-1.58-0.03&#xA;	c-1.7,0.25-7.79-6.36-9.41-6.65c-1.69-0.3-2.23,0.23-2.46,2.11c-0.17,1.39-0.34,2.77-0.51,4.16c-0.29,2.49-0.58,4.97-0.88,7.46&#xA;	c-0.02,0.16-0.03,0.33-0.1,0.48c-0.76,1.64-1.32,3.43-2.36,4.85c-0.61,0.84-1.93,1.31-3.02,1.56c-1.18,0.27-1.85,0.57-2.01,1.77&#xA;	c-0.19,1.44-3.14,8.76-8.37,15.26c-3.42,4.26-8.33,9.02-11.97,10.9c-0.57,0.72-1.08,0.6-1.53-0.23c-1.26-2.28-1.81-4.79-2.13-7.34&#xA;	c-0.45-3.64-0.84-7.29-1.2-10.94c-0.1-1,0-2.02-0.06-3.02c-0.06-0.97-0.36-1.13-1.12-0.58c0.28,0.2-4.31,2.16-10.4,4.2&#xA;	c-3.39,1.22-14.93,4.06-16.11,4.34c-0.86,0.2-1.35-0.27-1.51-1.09c-0.09-0.47-0.18-0.97-0.13-1.44c0.29-3.01,1.28-5.3,3.26-9.73&#xA;	c1.92-4.75,3.2-5.83,5.02-9.65c0.84-1.76,1.6-3.59,3.07-4.98c0.59-0.55,0.11-1.41-0.81-1.42c-0.76-0.01-1.53,0.15-2.27,0.31&#xA;	c-4.36,0.95-7.58,1.75-13.59,2.09c-1.59-0.16-6.04,0.43-9.27-0.45s-4.17-1.17-4.26-1.87c-0.17-1.36,1.63-1.86,3.64-2.95&#xA;	c3.53-1.91,3.67-2.45,9.77-5.73c3.48-1.86,5.41-3.05,7.78-4.85c0.43-0.33,0.95-0.56,1.33-0.93c0.54-0.53,0.37-1-0.37-1.16&#xA;	c-0.28-0.06-0.61-0.13-0.85-0.04c-2.88,1.19-14.22-2.15-17.15-2.25c-2.3-0.08-4.6-0.74-6.87-1.28c-1.8-0.43-3.47-1.42-2.5-3.02&#xA;	c1.35-2.23,4.65-2.22,8.33-3.59c6.82-1.85,11.13-3.07,13.89-4.22c0.18-0.07,0.39-0.12,0.51-0.25c0.25-0.27,3.66-1.78,2.55-3.15&#xA;	c-0.79-0.26-3.78-1.75-4.58-1.98c-4.96-2.15-6.7-2.94-11.91-5.44c-0.14-0.01-7.06-1.97-6.09-4.4c3.24-4.63,7.07-4.56,8.18-5.05&#xA;	c1.83-0.81,8.06-1.65,9.95-2.33c0.65-0.23,6.09-1.33,6.72-1.64c2.08-1.16,0.87-3.02-0.46-5.09c-0.1-0.38-1.72-1.88-1.95-2.15&#xA;	c-0.89-1.06-1.93-1.99-2.77-3.09c-1.07-1.4-1.84-2.97-2.07-4.77c-0.18-1.35,0.29-1.81,1.59-1.6c0.09,0.02,0.19,0.04,0.29,0.04&#xA;	c2.6,0.12,15.04,2.8,17.64,2.89c1.3,0.05-4.5-7.58-4.66-8.41c-0.06-0.28-0.16-0.56-0.28-0.83c-0.67-1.54-1.4-3.05-2-4.61&#xA;	c-0.59-1.54-1.09-3.11-1.58-4.69c-0.33-1.08-0.6-2.19-0.84-3.3c-0.07-0.34-0.08-0.92,0.11-1.06c0.31-0.22,0.91-0.37,1.22-0.21&#xA;	c2.68,1.37,9.95,5.03,12.62,6.43c0.59,0.31,1.26,0.48,1.89,0.72C47.05,37,47.17,36.88,47.29,36.75z"/>
</svg>