<?xml version="1.0" encoding="utf-8"?>
<svg xmlns="http://www.w3.org/2000/svg" width="121" height="120" viewBox="0 0 121 120" fill="none">
<path d="M120.089 85.8668C119.657 86.332 115.858 90.3016 108.631 89.5883C101.003 88.844 92.7872 83.7889 89.2354 73.5856C85.7146 63.3823 81.7922 56.9006 81.7922 56.9006C81.7922 56.9006 78.9817 57.2728 76.8506 57.831C74.6887 58.4203 70.6119 57.924 71.0752 61.2114C71.5384 64.4988 79.445 77.4932 79.445 79.385C79.445 81.2768 76.0167 86.8902 76.0167 86.8902C69.9015 93.682 67.4932 98.8138 60.7912 105.016L59.6485 104.427L58.7837 105.109C58.5984 105.296 58.3513 105.109 58.4131 104.861C59.9882 97.5113 68.1102 94.1782 69.5618 87.6035C70.2104 85.1535 73.6695 81.3389 72.465 79.7572C68.8161 74.8718 64.682 67.29 60.0493 61.5834C57.4035 58.3243 56.0034 55.1329 56.0034 55.1329C56.0034 55.1329 51.1545 56.5285 48.5601 56.6215C48.9308 59.8468 49.7646 64.2197 51.2471 64.6229C53.9959 65.3672 52.0192 62.7311 53.9959 62.7931C55.3548 65.5843 53.2546 67.8172 50.2588 67.29C47.8498 66.8868 45.101 62.607 44.2054 60.219C43.248 57.5829 41.2713 55.7841 40.2212 55.505C36.7621 54.0164 28.8247 50.2948 26.1995 46.2631C25.3348 45.5809 24.5009 44.8676 23.6979 44.2473L10.788 44.5574L9.08936 42.5416C9.08936 41.6112 9.58351 40.9599 10.263 40.3086C12.672 38.1377 18.9416 35.0054 22.0919 32.9276C25.6127 30.5706 28.1144 27.3452 32.3765 26.1667C33.0869 25.9806 34.3531 25.5154 34.0443 26.6319L32.0985 29.7022L27.2187 33.889C28.763 36.9592 32.0985 38.3161 35.3414 38.3161C38.4299 38.3161 44.2363 31.3149 46.1511 29.7022C52.3281 24.4999 62.4281 16.8776 73.8555 24.2277C82.565 29.81 85.1278 38.851 89.3281 52.7759C93.5284 66.7317 97.0802 83.8819 106.778 85.8357C116.074 87.6965 119.811 85.9908 120.089 85.8668Z" fill="#85827d"/>
</svg>