<?xml version="1.0" encoding="utf-8"?>
<svg xmlns="http://www.w3.org/2000/svg" viewBox="0 0 26 26">
  <path fill="#85827d" d="M19.9,14.4,25.7,13l-6.3-1.6-1.9-.5.2-.4h0l.8-1.6,1.1-2.3h0L16.7,8.1h-.3l-.6.3h0l-.5.2L15.1,8h0l-.6-2.3L13.2.5,11.5,7.3l-.3,1.5-.5-.2h0L9.1,7.7,6.9,6.6l2,2h0l-2-2,1.7,3.5.2.4h.1v.3l.8-.2H10l-.9.3H9l-3.1.8h0L.8,13l4.6,1.1,3.7,1-.2.4h0l-.4.8L7,19.3l2.8-2.7h0L7,19.3l3.5-1.7.3-.2h0l.4-.2.9,3.7,1.1,4.5,2-7.9V17l.5.3h0l1.4.7,2.4,1.2-.8-.9h0l.8.9-.4-.7-1.5-3.2h0l-.2-.3h0l2.4-.5M11.5,13h1V13Zm-.3-2.1.6.6v.2l-.9-.8h.3m.2,4.2.2-.3h.3c0,.2.2.4.8.7l-1.3-.4M15,10.9h-.1v-.4l.3.3Zm-.4,3.4h0l.2.2Zm2,2.1h-.4v-.2h.2Zm2.7-4.9,5.3,1.3h-11l1.1-1.1h.2l.5-.6h-.2l.2-.2h.2l.2-.2ZM18,8.5l-2,1.9,1.3.5.3-.6h-.1l-.2.4-1.2-.4.8-.9Zm-2.2.2h.1l.7-.4,2.2-1.1L17.6,8.4l-.4.4-.5.5h0l-.9.9-.4-1.3ZM11.7,7.1l1.4-5.5v6h0v4.5h0v.7l-.7-.6-.7-.5v-.2l-.4-.4-.5-.5ZM9.6,10.7H9.2v-.4H8.9l-.3-.5L7.5,7.4,8.8,8.8l.8.7.9.9ZM5.4,14l-3.5-.9H12.8l-.3.4-.7.6-.4.5h.3l-.3.3h-.3l-.4.5Zm5.4,3.3h-.2L7.8,18.8l2.1-2.1v-.2l.8-.7v.4l.2.9Zm3.6,3.1c-.1.3-.1.6-.2.9h-.1l-1.2,3V17.7h-.1v-.3h.1V15.7h0V14.4a.4.4,0,0,1-.1-.3v-.3h.1v-.4l.9.4H14V14l1.5,1.5-.4,2Zm3.1-5h.1L19,18.4l-2.1-2.1-.9-.9,1.4-.3Zm-1.3-.1h-.3V15h.4v.2h0Z"/>
</svg>