<?xml version="1.0" encoding="utf-8"?>
<svg xmlns="http://www.w3.org/2000/svg" width="500" height="500" viewBox="0 0 500 500" fill="none">
  <path d="M431.983 328.368C431.983 327.125 431.605 326.47 430.523 325.857C422.055 321.069 413.621 316.206 405.187 311.36C404.642 311.049 404.113 310.705 403.391 310.26C404.037 309.848 404.507 309.529 404.994 309.243C413.546 304.263 422.08 299.274 430.657 294.343C431.58 293.814 431.874 293.243 431.866 292.193C431.79 283.954 431.765 275.722 431.79 267.483C431.79 266.391 431.488 265.761 430.514 265.207C423.314 261.125 416.13 257.009 408.972 252.843C408.04 252.297 407.386 252.373 406.488 252.894C389.964 262.544 373.406 272.144 356.89 281.82C355.707 282.517 354.876 282.534 353.701 281.854C335.684 271.464 317.632 261.116 299.589 250.76C299.127 250.5 298.674 250.223 298.045 249.853C298.582 249.492 298.993 249.189 299.43 248.937C317.548 238.388 335.675 227.856 353.777 217.281C354.759 216.71 355.43 216.76 356.378 217.306C372.961 226.865 389.569 236.372 406.144 245.931C407.327 246.611 408.175 246.577 409.341 245.88C416.273 241.765 423.247 237.716 430.246 233.701C431.245 233.13 431.673 232.534 431.664 231.333C431.58 223.093 431.564 214.862 431.589 206.623C431.589 205.573 431.278 204.993 430.355 204.472C422.131 199.802 413.932 195.074 405.724 190.362C404.893 189.883 404.063 189.396 403.022 188.791C403.567 188.413 403.962 188.102 404.398 187.85C412.941 182.87 421.485 177.881 430.061 172.95C431.144 172.329 431.488 171.674 431.48 170.439C431.396 162.258 431.379 154.069 431.396 145.888C431.396 144.855 431.127 144.267 430.196 143.73C422.945 139.622 415.719 135.473 408.519 131.282C407.562 130.728 406.899 130.887 406.035 131.4C397.458 136.431 388.856 141.428 380.262 146.434C379.86 146.669 379.432 146.863 378.794 147.19C378.794 146.409 378.794 145.846 378.794 145.283C378.76 135.431 378.718 125.579 378.727 115.727C378.727 114.627 378.399 113.997 377.426 113.442C370.225 109.36 363.042 105.245 355.892 101.07C354.943 100.516 354.289 100.65 353.424 101.154C346.383 105.295 339.326 109.419 332.234 113.476C331.143 114.106 330.816 114.811 330.824 116.029C330.917 135.036 330.942 154.035 331.059 173.043C331.068 174.605 330.564 175.394 329.238 176.159C321.207 180.804 313.193 185.482 305.178 190.143L314.527 188.489C317.934 187.884 320.242 189.497 321.425 193.318L321.946 196.25C317.548 197.031 313.461 196.745 309.702 195.393C305.791 196.09 304.356 199.366 305.396 205.228L299.539 206.27C300.73 202.927 300.907 198.484 300.143 193.075C291.902 197.871 283.652 202.65 275.411 207.446C274.958 207.706 274.497 207.933 273.825 208.294C273.825 207.563 273.825 207.051 273.825 206.539C273.758 185.7 273.716 164.87 273.607 144.032C273.607 142.655 274.052 141.957 275.227 141.277C291.742 131.719 308.224 122.093 324.732 112.527C325.739 111.939 326.158 111.351 326.15 110.158C326.075 101.919 326.058 93.6874 326.066 85.4479C326.066 84.4148 325.806 83.81 324.858 83.2809C317.649 79.2073 310.474 75.0833 303.323 70.9173C302.342 70.3462 301.653 70.4218 300.722 70.9761C292.237 75.9652 283.736 80.9039 275.235 85.851C274.74 86.1366 274.228 86.3886 273.473 86.7917C273.473 85.9938 273.473 85.4311 273.473 84.8599C273.439 74.9573 273.397 65.0463 273.406 55.1437C273.406 54.077 273.053 53.5394 272.138 53.0271C265.123 49.0543 258.14 45.0227 251.15 40.9911C250.655 40.7055 250.201 40.3276 249.731 40C249.513 40 249.303 40 249.085 40C247.826 40.7979 246.593 41.6378 245.309 42.3938C239.233 45.9466 233.157 49.5162 227.031 52.9935C225.831 53.6738 225.487 54.4382 225.495 55.782C225.57 63.8536 225.587 71.9252 225.604 79.9968C228.466 82.3318 232.989 84.7003 239.292 87.1025L239.812 90.0338L236.883 90.5545C232.964 91.2517 230.673 89.6474 229.985 85.725L224.639 89.6978C224.438 88.5555 223.791 87.1025 222.793 85.4059C214.644 80.7275 206.487 76.066 198.372 71.3373C197.289 70.7073 196.534 70.7325 195.468 71.3625C188.486 75.4948 181.461 79.5768 174.429 83.6168C173.43 84.1964 172.994 84.8011 173.002 86.0022C173.086 94.183 173.12 102.372 173.069 110.553C173.069 111.83 173.523 112.451 174.563 113.047C191.18 122.539 207.771 132.08 224.379 141.579C225.285 142.1 225.805 142.596 225.814 143.788C225.831 164.896 225.906 186.003 225.973 207.101C225.973 207.462 225.94 207.832 225.915 208.386C225.377 208.126 224.949 207.958 224.547 207.731C206.361 197.299 188.184 186.851 169.981 176.453C168.89 175.831 168.546 175.117 168.546 173.899C168.529 154.783 168.445 135.675 168.42 116.558C168.42 115.357 168.126 114.652 167.01 114.022C159.793 109.965 152.643 105.791 145.434 101.717C144.922 101.431 143.965 101.423 143.462 101.717C136.32 105.791 129.229 109.965 122.096 114.055C120.946 114.711 120.484 115.441 120.493 116.827C120.593 126.57 120.593 136.313 120.619 146.065C120.619 146.636 120.619 147.215 120.619 148.072C117.228 146.132 114.064 144.343 110.917 142.529C104.951 139.102 98.9753 135.683 93.0337 132.223C92.2197 131.752 91.649 131.786 90.8601 132.256C83.2569 136.716 75.6284 141.126 68 145.552C68.0252 154.817 68.0587 164.072 68.0839 173.337C74.7473 177.125 81.419 180.913 88.0823 184.709C90.9105 186.322 93.7219 187.943 96.8102 189.715C87.0921 195.342 77.6425 200.81 68.1846 206.287C68.2098 215.551 68.2434 224.807 68.2685 234.071C75.7879 238.355 83.3156 242.605 90.793 246.955C91.9511 247.627 92.7652 247.552 93.8477 246.922C110.321 237.288 126.829 227.704 143.294 218.062C144.343 217.449 145.098 217.39 146.189 218.02C157.091 224.311 168.017 230.569 178.935 236.834C179.17 234.676 179.078 232.383 178.65 229.972L181.579 229.451C186.312 235.835 190.013 240.034 192.699 242.075C194.142 243.167 195.292 243.654 196.148 243.503L196.777 247.09C198.086 247.846 199.395 248.593 200.713 249.349C201.082 249.559 201.435 249.786 202.014 250.13C200.184 251.222 198.506 252.23 196.811 253.213C195.317 254.078 193.823 254.951 192.329 255.816C192.363 256.194 192.405 256.589 192.48 257.001C192.036 257.076 191.473 256.934 190.861 256.682C176.023 265.307 161.186 273.933 146.357 282.585C145.359 283.164 144.637 283.248 143.596 282.643C126.879 273.001 110.128 263.409 93.4113 253.775C92.5218 253.263 91.8924 253.364 91.0699 253.851C84.2555 257.849 77.416 261.813 70.5848 265.786C69.8463 266.215 69.0826 266.609 68.3273 267.021C68.3525 276.285 68.386 285.541 68.4112 294.805C77.9027 300.223 87.3942 305.649 97.1291 311.209C93.2183 313.485 89.5845 315.618 85.934 317.727C80.1266 321.078 74.3193 324.421 68.5035 327.764C68.5287 337.028 68.5623 346.284 68.5874 355.548C76.1907 359.899 83.8024 364.233 91.3805 368.626C92.2868 369.155 92.9414 369.163 93.8477 368.626C102.231 363.695 110.649 358.815 119.058 353.919C119.687 353.549 120.333 353.213 121.181 352.734C121.181 353.465 121.181 353.935 121.181 354.406C121.214 364.258 121.265 374.11 121.24 383.962C121.24 385.231 121.55 385.978 122.717 386.633C129.884 390.665 137 394.781 144.117 398.913C144.973 399.408 145.602 399.375 146.45 398.879C153.583 394.68 160.725 390.497 167.908 386.39C168.915 385.81 169.159 385.163 169.159 384.097C169.075 364.88 169.033 345.662 168.966 326.445C168.966 325.479 169.058 324.782 170.057 324.202C188.477 313.535 206.864 302.818 225.268 292.118C225.453 292.008 225.654 291.933 226.007 291.773C226.066 292.244 226.15 292.638 226.15 293.025C226.217 314.182 226.275 335.34 226.368 356.497C226.368 357.413 226.099 357.925 225.277 358.404C208.677 368.029 192.103 377.705 175.495 387.314C174.269 388.028 173.808 388.775 173.833 390.211C173.934 398.283 173.942 406.363 173.917 414.435C173.917 415.61 174.295 416.24 175.318 416.82C182.427 420.843 189.518 424.908 196.576 429.024C197.6 429.62 198.33 429.578 199.337 428.982C207.813 423.993 216.331 419.063 224.832 414.124C225.285 413.855 225.755 413.611 226.536 413.175C226.536 414.006 226.536 414.619 226.536 415.224C226.569 425.018 226.611 434.819 226.603 444.613C226.603 445.755 226.88 446.419 227.945 447.015C234.835 450.887 241.667 454.851 248.515 458.791C249.01 459.076 249.505 459.387 249.941 460H250.764L251.175 459.748C251.175 459.723 251.158 459.698 251.158 459.672C252.643 458.807 254.129 457.942 255.606 457.077C257.628 455.893 259.651 454.717 261.673 453.533C265.525 451.282 269.361 449.006 273.255 446.822C274.186 446.301 274.505 445.738 274.497 444.68C274.421 434.777 274.413 424.866 274.379 414.964C274.379 414.426 274.379 413.889 274.379 413.124C274.941 413.385 275.361 413.544 275.755 413.771C284.475 418.769 293.203 423.766 301.897 428.806C302.753 429.301 303.365 429.309 304.221 428.806C311.355 424.606 318.505 420.44 325.688 416.316C326.654 415.762 327.006 415.148 326.998 414.04C326.922 405.8 326.905 397.569 326.922 389.329C326.922 388.229 326.586 387.624 325.613 387.062C308.946 377.545 292.313 367.979 275.663 358.446C274.79 357.942 274.186 357.497 274.186 356.27C274.169 334.953 274.094 313.628 274.035 292.311C274.035 292.151 274.06 291.992 274.094 291.546C274.723 291.882 275.252 292.16 275.781 292.454C293.824 302.81 311.858 313.174 329.927 323.497C331.051 324.144 331.479 324.832 331.479 326.143C331.496 345.259 331.58 364.367 331.588 383.484C331.588 384.727 331.949 385.39 333.04 386.012C340.198 390.052 347.323 394.167 354.44 398.291C355.212 398.737 355.799 398.821 356.622 398.333C363.898 394.058 371.182 389.8 378.509 385.609C379.474 385.054 379.49 384.349 379.482 383.475C379.457 375.74 379.432 368.004 379.406 360.268L377.04 359.563L374.967 347.829L377.896 347.308C378.181 348.896 378.685 350.45 379.381 351.97V351.945C381.865 353.364 384.098 354.624 386.313 355.901C393.17 359.832 400.026 363.754 406.865 367.718C407.705 368.206 408.351 368.248 409.207 367.744C416.34 363.544 423.49 359.361 430.657 355.229C431.605 354.683 432.008 354.12 432 352.978C431.924 344.797 431.891 336.608 431.924 328.427L431.983 328.368ZM368.757 178.897L369.705 175.705C373.112 175.1 375.42 176.713 376.604 180.535L377.124 183.466C373.817 182.492 371.216 181.996 369.311 181.988C368.757 181.988 368.253 182.013 367.817 182.089L368.765 178.897H368.757ZM360.39 174.328L361.431 180.19L358.502 180.711L357.461 174.849L360.39 174.328ZM333.678 194.183L334.71 200.046L328.852 201.087C328.248 197.677 329.851 195.368 333.678 194.183ZM324.488 203.96L326.435 204.54C326.813 206.69 326.477 208.336 325.47 209.512C324.639 210.478 323.372 211.133 321.61 211.444L320.057 202.641L324.488 203.96ZM314.972 208.084C316.524 216.878 318.538 222.581 321.014 225.159C319.059 225.504 318.606 228.612 319.638 234.474C317.682 234.819 316.533 234.021 316.189 232.064L310.843 236.036L309.29 227.234L311.187 220.851C309.232 221.195 308.082 220.397 307.738 218.44C305.782 218.785 304.985 219.944 305.329 221.892C301.41 222.589 299.119 220.985 298.431 217.063C302.333 216.374 307.855 213.384 314.98 208.084H314.972ZM92.5302 225.537C88.5271 225.747 86.2361 224.135 85.6318 220.708L90.8434 216.004C94.7457 215.316 97.0955 217.163 97.876 221.565L92.5302 225.537ZM139.778 191.462L137.487 182.794L141.154 182.147L142.707 190.95L139.778 191.47V191.462ZM178.902 214.031L177.215 204.498L178.952 204.187L180.144 203.977L181.344 210.755L181.831 213.51L178.902 214.031ZM109.776 335.919L108.005 330.183L110.934 329.662L112.705 335.398L109.776 335.919ZM151.116 360.361L151.636 363.292C146.257 364.241 140.818 359.16 135.338 348.031C137.285 347.686 138.72 344.411 139.644 338.195L146.022 340.094L148.825 338.842L154.9 334.743L156.453 343.546L150.075 341.647L144.133 346.477L151.124 360.361H151.116ZM151.846 322.422L150.495 322.657L149.974 319.726L150.805 319.574L156.57 318.558L157.091 321.489L151.846 322.422ZM246.568 265.576L240.19 263.678L238.117 251.944L241.046 251.424C241.91 256.312 244.721 260.864 249.496 265.055L246.568 265.576ZM258.627 248.316C258.283 246.367 258.736 243.26 260.003 239.001C259.659 237.053 257.528 236.414 253.625 237.103L252.585 231.232L258.442 230.191C258.963 233.122 263.729 237.321 272.759 242.781L275.353 257.446L258.627 248.308V248.316ZM284.483 240.715L279.137 244.688C278.793 242.739 277.291 239.984 274.656 236.406L273.615 230.543L276.544 230.023C277.232 233.937 282.973 237.96 293.79 242.092L294.31 245.023L291.381 245.544C287.462 246.241 285.18 244.637 284.483 240.715ZM288.469 297.476L287.429 291.614L293.287 290.572L294.327 296.435L288.469 297.476Z" fill="#85827d"/>
</svg>