<svg width="513" height="512" viewBox="0 0 513 512" fill="none" xmlns="http://www.w3.org/2000/svg"><path d="M434.95 512H77.0601C34.5701 512 0 477.43 0 434.94V77.06C0.01 34.57 34.5801 0 77.0701 0H434.96C477.45 0 512.02 34.57 512.02 77.06V434.95C512.01 477.43 477.44 512 434.95 512ZM77.0701 34.8C53.7701 34.8 34.8101 53.76 34.8101 77.06V434.95C34.8101 458.25 53.7701 477.21 77.0701 477.21H434.96C458.26 477.21 477.22 458.25 477.22 434.95V77.06C477.22 53.76 458.26 34.8 434.96 34.8H77.0701V34.8Z" fill="white"></path><path d="M365.59 340.415C365.52 340.395 365.46 340.385 365.4 340.365V340.395C365.47 340.405 365.52 340.405 365.59 340.415Z" fill="white"></path><path d="M365.59 340.415C368.37 340.725 366.65 340.665 365.59 340.415V340.415Z" fill="white"></path><path d="M365.59 340.415C365.52 340.395 365.46 340.385 365.4 340.365V340.395C365.47 340.405 365.52 340.405 365.59 340.415Z" fill="white"></path><path d="M365.59 340.415C368.37 340.725 366.65 340.665 365.59 340.415V340.415Z" fill="white"></path><path d="M365.4 340.365V340.215L364.97 340.155C365.01 340.235 365.18 340.305 365.4 340.365Z" fill="white"></path><path d="M364.96 340.155L365.39 340.215V339.855C365.02 339.965 364.91 340.065 364.96 340.155Z" fill="white"></path><path d="M365.59 340.415C368.37 340.725 366.65 340.665 365.59 340.415V340.415Z" fill="white"></path><path d="M365.59 340.415C365.52 340.395 365.46 340.385 365.4 340.365V340.395C365.47 340.405 365.52 340.405 365.59 340.415Z" fill="white"></path><path d="M411.5 368.895C411.4 368.905 411.3 368.905 411.21 368.915C411.16 368.915 411.1 368.915 411.05 368.915L413.86 369.105C413.15 368.795 412.37 368.785 411.5 368.895Z" fill="white"></path><path d="M365.59 340.415C365.52 340.395 365.46 340.385 365.4 340.365V340.395C365.47 340.405 365.52 340.405 365.59 340.415Z" fill="white"></path><path d="M365.59 340.415C368.37 340.725 366.65 340.665 365.59 340.415V340.415Z" fill="white"></path><path d="M365.59 340.415C365.52 340.395 365.46 340.385 365.4 340.365V340.395C365.47 340.405 365.52 340.405 365.59 340.415Z" fill="white"></path><path d="M365.59 340.415C368.37 340.725 366.65 340.665 365.59 340.415V340.415Z" fill="white"></path><path d="M450.87 359.725C451.07 359.355 450.86 358.905 450.46 358.805C450.17 358.735 449.89 358.665 449.62 358.545C449.17 358.355 448.58 358.105 448.41 357.725C447.34 355.325 445.76 355.045 443.54 356.385C443.23 356.565 442.83 356.455 442.66 356.145C442.28 355.445 441.92 354.785 441.57 354.135C441.4 353.825 441.52 353.425 441.84 353.265C442.53 352.915 443.26 352.545 444.13 352.105C444.44 351.955 444.56 351.575 444.42 351.265C444.31 351.025 444.15 350.775 443.93 350.675C442.28 349.865 440.98 350.145 440.32 351.675C440.16 352.035 439.74 352.185 439.41 351.965C438.37 351.275 437.37 350.615 436.39 349.965C436.14 349.795 436.04 349.475 436.16 349.195C437.48 346.055 437.3 346.045 433.52 345.195C428.3 344.015 423.1 342.745 417.87 341.585C415.03 340.955 413.13 339.505 412.59 336.495C412.3 334.865 411.76 333.285 411.41 331.665C411.01 329.805 409.7 329.385 408.17 329.795C406.53 330.235 407.17 331.525 407.51 332.585C408.12 334.445 408.96 336.255 409.35 338.165C410.14 342.095 412.46 344.155 416.36 344.745C418.37 345.055 420.34 345.605 422.39 346.095C422.71 346.175 422.92 346.485 422.88 346.775L422.66 348.215C422.62 348.515 422.36 348.745 422.05 348.755C421.85 348.765 421.69 348.765 421.52 348.735C412.78 347.365 404.05 345.995 395.31 344.625L365.39 340.215V340.355C365.45 340.375 365.51 340.385 365.58 340.405C366.64 340.655 368.36 340.725 365.58 340.405C365.52 340.395 365.46 340.395 365.39 340.385V340.355C365.17 340.295 365 340.225 364.96 340.145C364.96 340.135 364.96 340.125 364.96 340.125L357.8 339.035C356.28 338.845 354.84 338.665 353.41 338.465C347.54 337.645 347.46 337.655 346.82 331.675C345.68 320.935 342.71 310.835 336.68 301.755C331.27 293.605 324.56 287.295 314.4 285.755C313.94 285.685 313.23 284.945 313.23 284.515C313.23 282.645 313.46 280.765 313.62 278.695C310.78 278.815 309.42 276.305 309.35 274.295C309.28 272.205 311 270.055 312.01 267.765C309.88 265.265 309.88 265.265 304.94 264.615C305.34 265.685 306.09 266.675 305.86 267.305C305.56 268.145 304.49 268.695 304.23 268.935C304.72 270.265 305.2 271.235 305.43 272.255C305.79 273.865 304.76 274.275 303.4 274.525C302.98 274.605 302.7 275.435 302.57 275.615C300.65 274.555 298.75 273.775 297.19 272.565C295.78 271.465 294.75 269.885 293.32 268.255C292.59 267.875 291.41 267.265 290.2 266.635C292.22 263.405 293.92 262.115 297 261.285C299.62 260.575 301.9 259.335 303.55 257.095C303.89 256.625 304.39 256.255 304.89 255.935C306.56 254.845 308.39 253.975 309.9 252.705C312.26 250.725 313.07 248.025 312.75 244.955C312.64 243.875 312.73 242.775 312.73 241.315C304.97 240.985 296.82 240.645 288.66 240.305C288.56 240.005 288.56 240.005 288.47 239.705C295 234.635 301.53 229.555 307.84 224.655C306.19 221.855 303.71 222.435 301.41 222.415C298.08 222.385 294.73 222.655 291.44 222.305C288.27 221.965 286 223.205 283.65 225.015C277.19 229.985 270.63 234.815 264 239.775C262.96 238.645 261.99 237.605 261.02 236.555C248.77 223.365 236.53 210.175 224.29 196.985C223.78 196.435 222.81 195.655 222.93 195.275C223.77 192.775 222.35 191.095 220.99 189.425C220.53 188.865 219.73 188.265 219.07 188.245C216.99 188.175 215.2 186.945 214.75 184.945C213.96 181.375 212.92 180.475 209.26 180.065C208.53 179.985 207.63 179.945 207.12 179.525C205.65 178.295 204.04 178.085 202.24 178.255C201.69 178.305 201.05 178.165 200.55 177.915C198.51 176.915 196.07 177.265 194.74 179.065C193.65 180.535 192.8 182.195 191.82 183.825C191.74 183.745 191.35 183.415 190.99 183.055C172.9 164.685 154.79 146.325 136.75 127.905C135.79 126.925 135.4 125.375 134.73 124.095C133.97 122.645 133.43 120.995 132.38 119.815C129.26 116.315 125.89 113.045 122.74 109.575C122.18 108.955 121.9 107.695 122.09 106.875C122.91 103.335 122.68 102.025 119.23 100.835C115.02 99.3851 112.28 96.4751 109.81 93.1151C109.34 92.4651 108.99 91.2851 109 90.4751C109.01 88.8551 108.34 87.7751 106.95 87.0851C104.65 85.9551 102.4 84.6051 99.9699 83.8751C97.9699 83.2751 95.64 82.9451 93.64 83.3751C90.81 83.9851 88.1399 85.3851 85.4399 86.5151C84.9599 86.7151 84.3599 87.2351 84.1099 87.6951C81.7399 91.9751 78.6899 92.8151 78.6899 97.7151L80.4599 101.635C81.5599 103.165 82.3199 104.445 83.2999 105.535C85.1299 107.545 87.0299 109.505 88.9999 111.385C93.2099 115.385 97.4299 119.385 101.75 123.265C104.77 125.975 108.05 128.395 111.06 131.115C113.01 132.885 114.63 135.025 116.51 136.885C117.21 137.575 118.23 137.955 119.12 138.435C120.24 139.035 121.67 139.345 122.49 140.215C143.06 162.185 163.55 184.235 184.11 206.215C185.82 208.035 185.22 209.635 184.75 210.835C183.15 211.045 182.01 210.995 181.08 211.425C180.69 211.605 180.41 213.095 180.72 213.475C181.81 214.845 181.56 216.045 180.87 217.435C179.57 220.045 180.01 222.175 182.27 224.275C186.25 227.985 189.96 231.975 193.78 235.865C197.95 240.115 202.12 244.375 206.35 248.685C205.83 249.355 205.47 249.925 205.01 250.395C196.61 258.985 189.87 268.835 183.43 278.915C183.06 279.495 182.96 280.245 182.73 280.925C183.41 281.105 184.08 281.445 184.76 281.445C188.47 281.425 192.17 281.285 195.88 281.295C196.71 281.295 198 281.475 198.3 282.005C200.02 285.085 201.26 288.345 200.07 292.065C198.72 291.645 197.59 291.195 196.42 290.945C195.17 290.685 193.87 290.485 192.6 290.515C178.07 290.805 166.94 297.085 159.52 309.645C154.45 318.225 152.24 327.625 151.99 337.535C151.68 349.735 152.72 361.755 158.16 372.895C164.56 385.985 173.76 395.605 189.4 396.945C200.62 397.905 209.93 394.715 217.05 385.705C221.34 380.275 224.04 374.095 226.09 367.575C226.98 364.725 227.74 361.845 228.65 358.665C233.99 362.055 239.97 359.085 245.43 361.125C247.49 361.895 250.02 360.955 252.4 361.125C255.59 361.345 258.77 361.045 262.04 359.955C265.15 358.915 268.87 359.735 272.43 359.735C273.94 368.115 278.1 375.445 282.8 382.525C288.74 391.455 296.91 396.315 307.78 397.235C319.29 398.205 328.45 394.405 335.29 385.295C337.71 382.075 339.62 378.395 341.34 374.735C342.86 371.495 343.79 367.985 345.03 364.455L411.08 368.955C411.13 368.955 411.19 368.955 411.24 368.955C411.34 368.945 411.44 368.945 411.53 368.935C412.4 368.825 413.18 368.835 413.88 369.155C414.37 369.375 414.81 369.745 415.22 370.345C415.68 371.025 416.83 371.455 417.73 371.585C420.12 371.915 422.56 371.895 424.95 372.225C428.75 372.745 432.51 373.605 436.31 373.975C437.66 374.105 439.66 373.695 440.38 372.775C441.74 371.005 442.5 368.985 444.44 367.385C445.57 366.465 446.62 365.245 448.04 364.545C449.48 363.835 450.8 363.075 450.1 361.745C450.01 361.565 450.03 361.355 450.11 361.205L450.87 359.725ZM234.99 325.565C234 326.555 233.01 327.565 232 328.535C231.37 329.145 230.77 329.835 230.03 330.235C229.63 330.445 228.55 330.255 228.45 329.995C227.9 328.535 225.16 316.335 224.12 314.945C226.71 314.785 239.39 317.965 241.82 317.815C241.96 318.005 234.85 325.375 234.99 325.565ZM282.52 258.005C281.34 257.055 280.25 256.175 279.17 255.305C279.16 255.005 279.16 254.705 279.15 254.405C281.86 253.925 284.56 253.455 287.27 252.975C287.36 253.155 287.45 253.325 287.54 253.505C285.92 254.955 284.3 256.405 282.52 258.005ZM319.54 364.615C314.28 364.615 308.77 354.575 308.77 344.525C308.77 334.475 313.03 326.325 318.29 326.325C323.55 326.325 329.06 336.365 329.06 346.415C329.06 356.465 324.8 364.615 319.54 364.615ZM425.39 349.125C425.16 349.375 424.78 349.405 424.52 349.185L424.51 349.175C424.34 349.035 424.26 348.825 424.29 348.605C424.35 348.195 424.41 347.755 424.49 347.165C424.56 346.685 425.11 346.455 425.5 346.745C426.06 347.175 426.52 347.505 426.46 347.655C426.25 348.205 425.81 348.665 425.39 349.125Z" fill="white"></path></svg>