<svg width="513" height="513" viewBox="0 0 513 513" fill="none" xmlns="http://www.w3.org/2000/svg"><path d="M435.04 512.005H77.1499C34.6599 512.005 0.0898438 477.435 0.0898438 434.945V77.0649C0.0998437 34.5749 34.6699 0.00488281 77.1599 0.00488281H435.05C477.54 0.00488281 512.11 34.5749 512.11 77.0649V434.955C512.1 477.435 477.53 512.005 435.04 512.005ZM77.1599 34.8049C53.8599 34.8049 34.8999 53.7649 34.8999 77.0649V434.955C34.8999 458.255 53.8599 477.215 77.1599 477.215H435.05C458.35 477.215 477.31 458.255 477.31 434.955V77.0649C477.31 53.7649 458.35 34.8049 435.05 34.8049H77.1599Z" fill="white"></path><path d="M221.29 205.405L161.19 196.955C161.81 165.185 170.58 139.475 187.49 119.825C204.39 100.185 228.42 90.3647 259.57 90.3647C292.44 90.3647 316.39 99.3647 331.41 117.365C346.44 135.365 353.95 156.335 353.95 180.285C353.95 198.915 350.35 214.525 343.15 227.125C335.95 239.725 323.82 253.615 306.76 268.805C294.71 279.605 287.39 287.785 284.81 293.335C282.23 298.895 280.94 309.105 280.94 323.975H224.59V313.405C224.59 293.845 225.65 279.795 227.76 271.265C229.87 262.735 237.97 251.585 252.06 237.805C263.8 226.385 271.9 216.555 276.36 208.335C280.82 200.115 283.05 190.295 283.05 178.875C283.05 168.395 280.31 160.565 274.83 155.395C269.35 150.225 262.93 147.645 255.58 147.645C232.87 147.645 221.45 166.895 221.29 205.405ZM221.29 347.445H284.21V415.765H221.29V347.445Z" fill="white"></path></svg>