<svg width="512" height="513" viewBox="0 0 512 513" fill="none" xmlns="http://www.w3.org/2000/svg"><path d="M434.94 512.005H77.06C34.57 512.005 0 477.435 0 434.945V77.0649C0 34.5749 34.57 0.00488281 77.06 0.00488281H434.95C477.43 0.00488281 512 34.5749 512 77.0649V434.955C512 477.435 477.43 512.005 434.94 512.005ZM77.06 34.8049C53.76 34.8049 34.8 53.7649 34.8 77.0649V434.955C34.8 458.255 53.76 477.215 77.06 477.215H434.95C458.25 477.215 477.21 458.255 477.21 434.955V77.0649C477.21 53.7649 458.25 34.8049 434.95 34.8049H77.06Z" fill="white"></path><path d="M372.95 83.2248C371.54 83.1448 370.14 83.0548 368.73 82.9648C361.86 89.6748 355.25 96.6448 348.06 103.025C333.98 115.515 319.87 128.005 305.17 139.845C298.03 145.595 290.13 150.435 285.39 158.395C284.88 159.255 283.91 159.875 283.63 160.145C277.89 154.615 272.21 149.315 266.79 143.795C265.53 142.515 264.48 140.455 264.51 138.785C264.58 133.815 264.66 128.885 267.98 124.385C270.38 121.115 269.28 117.145 266.9 113.885C261.99 107.175 255.52 102.005 247.77 98.5348C240.92 95.4648 228.55 99.1748 223.52 105.555C217.64 113.015 216.13 121.705 216.65 130.755C216.91 135.295 220.59 137.535 224.57 139.295C225.7 139.795 227.01 140.105 227.92 140.845C234.07 145.865 233.97 149.125 227.12 153.125C222.27 155.955 216.74 157.795 212.03 160.785C200.64 168.005 197.04 179.655 193.63 191.295C192.4 195.495 191.43 199.765 190 203.895C186.3 214.565 191.31 224.695 202.49 228.755C203.94 229.275 205.5 229.595 206.83 230.315C209.16 231.585 209.46 234.745 207.21 235.905C197.26 241.025 196.08 249.985 195.62 259.225C195.47 262.245 195.91 265.305 196.13 268.345C196.65 275.435 201.48 278.925 207.96 281.375C209.68 282.025 211.84 284.035 212.02 285.595C214.05 303.045 214.37 320.445 210.24 337.725C208.83 343.615 208.37 349.765 208.2 355.825C208.15 357.845 210.16 360.065 211.58 361.955C214.1 365.305 215.95 368.645 215.35 372.985C214.24 380.995 209.75 385.435 201.32 387.005C198.96 387.445 195.52 388.675 194 390.805C192.79 392.495 192.14 394.805 190.47 395.485L239.56 396.855C238.98 396.305 239.73 397.035 239.77 395.865C240.03 388.325 239.77 379.575 240.09 372.035C240.14 370.915 240.69 369.645 241.44 368.775C244.98 364.635 245.75 359.935 244.59 354.915C240.61 337.815 244.85 321.495 249.56 305.255C251.47 298.665 253.88 292.215 256.19 285.345C260.92 302.295 265.3 318.805 270.21 335.175C272.33 342.265 275.22 349.195 278.32 355.985C281.59 363.145 285.41 370.095 289.21 377.035C293.29 384.485 293.97 392.885 292.42 400.945L321.98 404.785C322.14 402.355 320.74 403.885 319.02 399.595C313.48 385.705 312.98 369.125 310.32 354.405C309.53 350.035 307.57 345.745 305.51 341.695C299.82 330.475 297.85 318.465 296.26 306.375C295.79 302.835 296.27 299.195 295.76 295.665C295.06 290.865 294.13 286.045 292.74 281.375C291.69 277.835 291.42 274.595 292.19 270.915C292.98 267.145 293.29 262.845 292.17 259.215C289.96 252.065 289.2 244.985 289.59 237.635C290.04 229.305 290.08 220.945 290.49 212.615C290.55 211.345 291.31 209.515 292.31 209.075C293.18 208.695 294.96 209.765 296.14 210.475C299.69 212.625 302.97 215.205 306.66 217.095C314.28 220.995 322.39 218.385 325.15 210.715C328.32 201.905 331.14 193.155 328.84 183.245C326.7 173.985 326.53 164.365 332.25 155.535C334.3 152.375 335.2 148.395 335.91 144.665C337.6 135.725 343.15 129.105 349.5 122.815C355.39 116.975 361.21 111.065 366.87 105.025C368.17 103.635 369.49 101.595 369.44 99.8848C369.33 95.9448 370.95 93.1248 373.68 90.3848C377.12 86.9348 376.89 86.1548 372.95 83.2248Z" fill="white"></path><path d="M239.76 396.125C239.76 399.255 228.35 401.795 214.27 401.795C200.19 401.795 189.92 399.045 188.78 396.125C187.71 393.375 194.6 389.745 195.89 389.065C199.76 387.025 203.71 390.455 214.27 390.455C228.35 390.455 239.76 392.995 239.76 396.125Z" fill="white"></path><path d="M322.64 403.535C326.42 412.105 316.51 411.635 307.96 410.815C299.41 409.995 292.07 404.305 292.37 401.185C292.67 398.065 299.14 395.575 307.7 396.395C316.25 397.215 321.02 399.855 322.64 403.535Z" fill="white"></path></svg>