<svg width="765" height="315" viewBox="0 0 765 315" fill="none" xmlns="http://www.w3.org/2000/svg"><path d="M209.39 129.16V46.8101L0.359863 45.77C1.60986 55.67 3.44979 65.1199 6.27979 73.8599L6.68018 75.0801C17.2302 106.39 40.9102 128.27 96.2202 128.56L209.39 129.16Z" fill="#B47732"></path><path d="M209.39 165.73L55.5298 164.33C61.6298 210.46 129.38 247.01 204.27 247.4L209.39 247.48V165.73Z" fill="#B47732"></path><path d="M555.17 134.78V52.4302L764.2 51.3901C762.95 61.2901 761.11 70.74 758.28 79.48L757.88 80.7002C747.33 112.01 723.65 133.89 668.34 134.18L555.17 134.78Z" fill="#B47732"></path><path d="M555.17 171.34L709.03 169.94C702.93 216.07 635.18 252.62 560.29 253.01L555.17 253.09V171.34Z" fill="#B47732"></path><path d="M490.9 0.149902H273.67C260.67 0.149902 250.04 10.7798 250.04 23.7798V291.12C250.04 304.12 260.67 314.75 273.67 314.75H490.9C503.9 314.75 514.53 304.12 514.53 291.12V23.7798C514.53 10.7798 503.89 0.149902 490.9 0.149902ZM440.3 241.5C420.59 227.87 401.68 213.42 382.28 199.48C362.82 213.36 343.93 227.82 324.26 241.5C331.35 218.7 338.99 196.47 346.22 173.82C327.74 158.82 307.06 146.02 288.57 131.03C312.37 131.03 336.17 131.03 359.97 131.03C367.53 108.6 374.84 85.9 381.91 62.98C390.07 84.96 396.88 108.27 404.23 131.03C428.16 131.03 452.09 131.03 476.02 131.03C457.4 145.76 437.26 158.99 418.37 173.45C425.28 196.52 433.19 218.61 440.3 241.5Z" fill="#B47732"></path></svg>