<svg width="776" height="279" viewBox="0 0 776 279" fill="none" xmlns="http://www.w3.org/2000/svg"><path d="M43.4399 278.9H196.31C210.33 278.9 221.8 268.39 221.8 255.54V35.05C221.8 22.2 210.33 11.6899 196.31 11.6899L26.45 27.26C12.43 27.26 0.959961 37.7701 0.959961 50.6201L17.95 255.54C17.95 268.39 29.4199 278.9 43.4399 278.9Z" fill="#9A754F"></path><path d="M304.86 278.9H471.7C486.55 278.9 498.7 266.75 498.7 251.9V27C498.7 12.15 486.55 0 471.7 0H304.86C290.01 0 277.86 12.15 277.86 27V251.9C277.86 266.75 290.01 278.9 304.86 278.9Z" fill="#9A754F"></path><path d="M580.24 278.9H733.11C747.13 278.9 758.6 268.39 758.6 255.54L775.59 50.6201C775.59 37.7701 764.12 27.26 750.1 27.26L580.24 11.6899C566.22 11.6899 554.75 22.2 554.75 35.05V255.54C554.76 268.39 566.23 278.9 580.24 278.9Z" fill="#9A754F"></path></svg>