<svg width="596" height="317" viewBox="0 0 596 317" fill="none" xmlns="http://www.w3.org/2000/svg"><path d="M234.3 0.100098L31.23 6.89014C14.47 6.89014 0.76001 19.08 0.76001 33.98L10.3601 289.7C10.3601 304.6 24.0701 316.79 40.8301 316.79H234.3C251.06 316.79 264.77 304.6 264.77 289.7V27.2002C264.77 12.2902 251.06 0.100098 234.3 0.100098ZM188.78 229.81C171.09 218.36 154.08 206.16 136.64 194.43C119.91 207.15 103.69 220.38 86.76 232.93C92.38 212.7 98.5 192.95 104.24 172.84C87.59 160.15 69.0599 149.45 52.4099 136.77C73.3399 136.13 94.2499 135.49 115.18 134.85C121.22 114.93 127.03 94.7699 132.64 74.4399C140.4 93.5399 147.02 113.85 154.09 133.66C175.13 133.02 196.16 132.37 217.2 131.73C201.22 145.19 183.88 157.35 167.66 170.57C174.37 190.67 181.92 209.88 188.78 229.81Z" fill="#909192"></path><path d="M565.33 6.89014L362.26 0.100098C345.5 0.100098 331.79 12.2899 331.79 27.1899V289.7C331.79 304.6 345.5 316.79 362.26 316.79H555.72C572.48 316.79 586.19 304.6 586.19 289.7L595.79 33.98C595.8 19.08 582.08 6.89014 565.33 6.89014ZM509.8 232.93C492.88 220.38 476.65 207.16 459.92 194.43C442.48 206.16 425.47 218.35 407.78 229.81C414.64 209.88 422.19 190.67 428.9 170.58C412.68 157.36 395.34 145.19 379.36 131.74C400.4 132.38 421.44 133.03 442.47 133.67C449.54 113.86 456.16 93.5502 463.92 74.4502C469.52 94.7902 475.34 114.94 481.38 134.86C502.3 135.5 523.22 136.14 544.15 136.78C527.5 149.46 508.97 160.16 492.32 172.85C498.06 192.95 504.18 212.7 509.8 232.93Z" fill="#909192"></path></svg>