<svg width="951" height="279" viewBox="0 0 951 279" fill="none" xmlns="http://www.w3.org/2000/svg"><path d="M53.76 271.94L191.95 278.9C204.62 278.9 214.99 268.53 214.99 255.86L199.63 53.76C199.63 41.09 189.26 30.72 176.59 30.72L23.04 61.4399C10.37 61.4399 0 71.81 0 84.48L30.72 248.9C30.72 261.57 41.09 271.94 53.76 271.94Z" fill="#707171"></path><path d="M288.71 278.9H426.9C439.57 278.9 449.94 268.53 449.94 255.86V23.04C449.94 10.37 439.57 0 426.9 0L273.35 15.3601C260.68 15.3601 250.31 25.7299 250.31 38.3999L265.67 255.86C265.67 268.53 276.04 278.9 288.71 278.9Z" fill="#707171"></path><path d="M523.66 278.9H661.85C674.52 278.9 684.89 268.53 684.89 255.86L700.25 38.3999C700.25 25.7299 689.88 15.3601 677.21 15.3601L523.66 0C510.99 0 500.62 10.37 500.62 23.04V255.86C500.62 268.53 510.98 278.9 523.66 278.9Z" fill="#707171"></path><path d="M758.61 278.9L896.8 271.97C909.47 271.97 919.84 261.6 919.84 248.93L950.56 84.48C950.56 71.81 940.19 61.4399 927.52 61.4399L773.97 30.72C761.3 30.72 750.93 41.09 750.93 53.76L735.57 255.86C735.56 268.53 745.93 278.9 758.61 278.9Z" fill="#707171"></path></svg>