<?xml version="1.0" encoding="UTF-8" standalone="no"?>
<!-- Created with Friction - https://friction.graphics -->

<svg viewBox="0 0 1000 1000" xmlns:xlink="http://www.w3.org/1999/xlink" xmlns="http://www.w3.org/2000/svg">
 <g transform="translate(0 0)">
  <g transform="translate(500 500)">
   <g transform="rotate(0)">
    <g transform="scale(1 1)">
     <g transform="skewX(0) skewY(0)">
      <g opacity="1" transform="translate(0 0)">
       <ellipse ry="474" cx="0" stroke-width="20" stroke-linecap="round" fill="246, 168, 62" id="XLargeCircle" stroke="none" cy="0" stroke-linejoin="round" rx="474"/>
      </g>
     </g>
    </g>
   </g>
  </g>
 </g>
 <g transform="translate(0 0)">
  <g transform="translate(500 500)">
   <g transform="rotate(0)">
    <g transform="scale(1 1)">
     <g transform="skewX(0) skewY(0)">
      <g opacity="1" transform="translate(0 0)">
       <ellipse ry="344" cx="0" stroke-width="20" stroke-linecap="round" fill="57, 72, 117" id="LargeCircle" stroke="none" cy="0" stroke-linejoin="round" rx="344"/>
      </g>
     </g>
    </g>
   </g>
  </g>
 </g>
 <g transform="translate(0 0)">
  <g transform="translate(500 500)">
   <g transform="rotate(0)">
    <g transform="scale(1 1)">
     <g transform="skewX(0) skewY(0)">
      <g opacity="1" transform="translate(0 0)">
       <ellipse ry="209" cx="0" stroke-width="20" stroke-linecap="round" fill="224, 230, 220" id="MediumCircle" stroke="none" cy="0" stroke-linejoin="round" rx="209"/>
      </g>
     </g>
    </g>
   </g>
  </g>
 </g>
 <g transform="translate(0 0)">
  <g transform="translate(500 500)">
   <g transform="rotate(0)">
    <g transform="scale(1 1)">
     <g transform="skewX(0) skewY(0)">
      <g opacity="1" transform="translate(0 0)">
       <ellipse ry="67" cx="0" stroke-width="20" stroke-linecap="round" fill="206, 32, 43" id="SmallCircle" stroke="none" cy="0" stroke-linejoin="round" rx="67"/>
      </g>
     </g>
    </g>
   </g>
  </g>
 </g>
 <defs/>
</svg>
