<?xml version="1.0" encoding="UTF-8" standalone="no"?>
<!-- Created with Friction - https://friction.graphics -->

<svg viewBox="0 0 1000 1000" xmlns:xlink="http://www.w3.org/1999/xlink" xmlns="http://www.w3.org/2000/svg">
 <g transform="translate(0 0)">
  <g transform="translate(499.17 500.528)">
   <g transform="rotate(0)">
    <g transform="scale(1 1)">
     <g transform="skewX(0) skewY(0)">
      <g opacity="1" transform="translate(0 0)">
       <ellipse ry="466" cx="0" stroke-width="30" stroke-linecap="round" fill="233, 243, 242" id="Circle" stroke="0, 0, 0" cy="0" stroke-linejoin="round" rx="466"/>
      </g>
     </g>
    </g>
   </g>
  </g>
 </g>
 <g transform="translate(680.136 555.38)">
  <g transform="translate(-328.752 -42.9993)">
   <g transform="rotate(0)">
    <g transform="scale(1 1)">
     <g transform="skewX(0) skewY(0)">
      <g opacity="1" transform="translate(-680.136 -555.38)">
       <g id="Fasce1">
        <g transform="translate(5 5)">
         <g transform="translate(616.814 225.423)">
          <g transform="rotate(0)">
           <g transform="scale(1 1)">
            <g transform="skewX(0) skewY(0)">
             <g opacity="1" transform="translate(-5 -5)">
              <rect x="0" ry="0" height="660" stroke-width="50" stroke-linecap="round" fill="0, 0, 0" id="RectangleBox" stroke="none" y="0" width="60" stroke-linejoin="round" rx="0"/>
             </g>
            </g>
           </g>
          </g>
         </g>
        </g>
        <g transform="translate(5 5)">
         <g transform="translate(634.38 207.88)">
          <g transform="rotate(0)">
           <g transform="scale(1 1)">
            <g transform="skewX(0) skewY(0)">
             <g opacity="1" transform="translate(-5 -5)">
              <rect x="0" ry="0" height="695" stroke-width="50" stroke-linecap="round" fill="0, 0, 0" id="RectangleBox0" stroke="none" y="0" width="25" stroke-linejoin="round" rx="0"/>
             </g>
            </g>
           </g>
          </g>
         </g>
        </g>
        <g transform="translate(0 0)">
         <g transform="translate(688.832 883.391)">
          <g transform="rotate(0)">
           <g transform="scale(1 1)">
            <g transform="skewX(0) skewY(0)">
             <g opacity="1" transform="translate(0 0)">
              <path stroke-width="8" stroke-linecap="square" fill="none" id="Path" stroke="0, 0, 0" d="M0.307029 -2.10562C0.307029 -2.71925 0.092348 -207.999 0.092348 -208.467" stroke-linejoin="round"/>
             </g>
            </g>
           </g>
          </g>
         </g>
        </g>
        <g transform="translate(0 0)">
         <g transform="translate(667.316 656.333)">
          <g transform="rotate(0)">
           <g transform="scale(1 1)">
            <g transform="skewX(0) skewY(0)">
             <g opacity="1" transform="translate(0 0)">
              <path stroke-width="8" stroke-linecap="round" fill="none" id="Path0" stroke="0, 0, 0" d="M0 0" stroke-linejoin="round"/>
             </g>
            </g>
           </g>
          </g>
         </g>
        </g>
        <g transform="translate(0 0)">
         <g transform="translate(669.558 656.774)">
          <g transform="rotate(0)">
           <g transform="scale(1 1)">
            <g transform="skewX(0) skewY(0)">
             <g opacity="1" transform="translate(0 0)">
              <path stroke-width="8" stroke-linecap="round" fill="0, 0, 0" id="Path1" stroke="none" d="M0 0C0 -0.891095 94.7251 -0.420325 94.7251 -0.420325C94.7251 -0.420325 96.4621 -77.0326 87.7628 -97.7139C79.0636 -118.395 71.7129 -124.984 71.7129 -124.984C71.7129 -124.984 53.9439 -120.244 53.9439 -120.244C53.9439 -120.244 63.2683 -92.1569 60.5217 -72.1863C57.7751 -52.2158 40.9825 -43.1538 33.9426 -42.3716C26.9026 -41.5894 -0.0943773 -42.3392 -0.0943773 -42.3392C-0.0943773 -42.3392 -0.876595 -0.0994692 0 0Z" stroke-linejoin="round"/>
             </g>
            </g>
           </g>
          </g>
         </g>
        </g>
       </g>
      </g>
     </g>
    </g>
   </g>
  </g>
 </g>
 <g transform="translate(680.136 555.38)">
  <g transform="translate(-157.752 -42.9993)">
   <g transform="rotate(0)">
    <g transform="scale(1 1)">
     <g transform="skewX(0) skewY(0)">
      <g opacity="1" transform="translate(-680.136 -555.38)">
       <g id="Fasce2">
        <g transform="translate(5 5)">
         <g transform="translate(616.814 225.423)">
          <g transform="rotate(0)">
           <g transform="scale(1 1)">
            <g transform="skewX(0) skewY(0)">
             <g opacity="1" transform="translate(-5 -5)">
              <rect x="0" ry="0" height="660" stroke-width="50" stroke-linecap="round" fill="0, 0, 0" id="RectangleBox" stroke="none" y="0" width="60" stroke-linejoin="round" rx="0"/>
             </g>
            </g>
           </g>
          </g>
         </g>
        </g>
        <g transform="translate(5 5)">
         <g transform="translate(634.38 207.88)">
          <g transform="rotate(0)">
           <g transform="scale(1 1)">
            <g transform="skewX(0) skewY(0)">
             <g opacity="1" transform="translate(-5 -5)">
              <rect x="0" ry="0" height="695" stroke-width="50" stroke-linecap="round" fill="0, 0, 0" id="RectangleBox0" stroke="none" y="0" width="25" stroke-linejoin="round" rx="0"/>
             </g>
            </g>
           </g>
          </g>
         </g>
        </g>
        <g transform="translate(0 0)">
         <g transform="translate(688.832 883.391)">
          <g transform="rotate(0)">
           <g transform="scale(1 1)">
            <g transform="skewX(0) skewY(0)">
             <g opacity="1" transform="translate(0 0)">
              <path stroke-width="8" stroke-linecap="square" fill="none" id="Path" stroke="0, 0, 0" d="M0.307029 -2.10562C0.307029 -2.71925 0.092348 -207.999 0.092348 -208.467" stroke-linejoin="round"/>
             </g>
            </g>
           </g>
          </g>
         </g>
        </g>
        <g transform="translate(0 0)">
         <g transform="translate(667.316 656.333)">
          <g transform="rotate(0)">
           <g transform="scale(1 1)">
            <g transform="skewX(0) skewY(0)">
             <g opacity="1" transform="translate(0 0)">
              <path stroke-width="8" stroke-linecap="round" fill="none" id="Path0" stroke="0, 0, 0" d="M0 0" stroke-linejoin="round"/>
             </g>
            </g>
           </g>
          </g>
         </g>
        </g>
        <g transform="translate(0 0)">
         <g transform="translate(669.558 656.774)">
          <g transform="rotate(0)">
           <g transform="scale(1 1)">
            <g transform="skewX(0) skewY(0)">
             <g opacity="1" transform="translate(0 0)">
              <path stroke-width="8" stroke-linecap="round" fill="0, 0, 0" id="Path1" stroke="none" d="M0 0C0 -0.891095 94.7251 -0.420325 94.7251 -0.420325C94.7251 -0.420325 96.4621 -77.0326 87.7628 -97.7139C79.0636 -118.395 71.7129 -124.984 71.7129 -124.984C71.7129 -124.984 53.9439 -120.244 53.9439 -120.244C53.9439 -120.244 63.2683 -92.1569 60.5217 -72.1863C57.7751 -52.2158 40.9825 -43.1538 33.9426 -42.3716C26.9026 -41.5894 -0.0943773 -42.3392 -0.0943773 -42.3392C-0.0943773 -42.3392 -0.876595 -0.0994692 0 0Z" stroke-linejoin="round"/>
             </g>
            </g>
           </g>
          </g>
         </g>
        </g>
       </g>
      </g>
     </g>
    </g>
   </g>
  </g>
 </g>
 <g transform="translate(680.136 555.38)">
  <g transform="translate(15.2484 -42.9993)">
   <g transform="rotate(0)">
    <g transform="scale(1 1)">
     <g transform="skewX(0) skewY(0)">
      <g opacity="1" transform="translate(-680.136 -555.38)">
       <g id="Fasce3">
        <g transform="translate(5 5)">
         <g transform="translate(616.814 225.423)">
          <g transform="rotate(0)">
           <g transform="scale(1 1)">
            <g transform="skewX(0) skewY(0)">
             <g opacity="1" transform="translate(-5 -5)">
              <rect x="0" ry="0" height="660" stroke-width="50" stroke-linecap="round" fill="0, 0, 0" id="RectangleBox" stroke="none" y="0" width="60" stroke-linejoin="round" rx="0"/>
             </g>
            </g>
           </g>
          </g>
         </g>
        </g>
        <g transform="translate(5 5)">
         <g transform="translate(634.38 207.88)">
          <g transform="rotate(0)">
           <g transform="scale(1 1)">
            <g transform="skewX(0) skewY(0)">
             <g opacity="1" transform="translate(-5 -5)">
              <rect x="0" ry="0" height="695" stroke-width="50" stroke-linecap="round" fill="0, 0, 0" id="RectangleBox0" stroke="none" y="0" width="25" stroke-linejoin="round" rx="0"/>
             </g>
            </g>
           </g>
          </g>
         </g>
        </g>
        <g transform="translate(0 0)">
         <g transform="translate(688.832 883.391)">
          <g transform="rotate(0)">
           <g transform="scale(1 1)">
            <g transform="skewX(0) skewY(0)">
             <g opacity="1" transform="translate(0 0)">
              <path stroke-width="8" stroke-linecap="square" fill="none" id="Path" stroke="0, 0, 0" d="M0.307029 -2.10562C0.307029 -2.71925 0.092348 -207.999 0.092348 -208.467" stroke-linejoin="round"/>
             </g>
            </g>
           </g>
          </g>
         </g>
        </g>
        <g transform="translate(0 0)">
         <g transform="translate(667.316 656.333)">
          <g transform="rotate(0)">
           <g transform="scale(1 1)">
            <g transform="skewX(0) skewY(0)">
             <g opacity="1" transform="translate(0 0)">
              <path stroke-width="8" stroke-linecap="round" fill="none" id="Path0" stroke="0, 0, 0" d="M0 0" stroke-linejoin="round"/>
             </g>
            </g>
           </g>
          </g>
         </g>
        </g>
        <g transform="translate(0 0)">
         <g transform="translate(669.558 656.774)">
          <g transform="rotate(0)">
           <g transform="scale(1 1)">
            <g transform="skewX(0) skewY(0)">
             <g opacity="1" transform="translate(0 0)">
              <path stroke-width="8" stroke-linecap="round" fill="0, 0, 0" id="Path1" stroke="none" d="M0 0C0 -0.891095 94.7251 -0.420325 94.7251 -0.420325C94.7251 -0.420325 96.4621 -77.0326 87.7628 -97.7139C79.0636 -118.395 71.7129 -124.984 71.7129 -124.984C71.7129 -124.984 53.9439 -120.244 53.9439 -120.244C53.9439 -120.244 63.2683 -92.1569 60.5217 -72.1863C57.7751 -52.2158 40.9825 -43.1538 33.9426 -42.3716C26.9026 -41.5894 -0.0943773 -42.3392 -0.0943773 -42.3392C-0.0943773 -42.3392 -0.876595 -0.0994692 0 0Z" stroke-linejoin="round"/>
             </g>
            </g>
           </g>
          </g>
         </g>
        </g>
       </g>
      </g>
     </g>
    </g>
   </g>
  </g>
 </g>
 <defs/>
</svg>
